<svg width="118" height="89" viewBox="0 0 118 89" fill="none" xmlns="http://www.w3.org/2000/svg">
<path fill-rule="evenodd" clip-rule="evenodd" d="M49.5578 54.859C50.0475 53.5561 51.5228 50.3314 51.5228 50.3314C52.1259 49.2504 51.9992 47.7561 51.9992 47.7561C52.0735 46.2207 51.3424 45.8546 50.5415 46.7201C50.6273 46.245 50.7967 45.2133 50.8716 44.7066C51.9562 40.7746 50.1731 35.3033 50.1731 35.3033C50.0451 34.8714 50.1214 35.1104 50.0017 34.7935C49.3556 33.2885 47.8295 30.0604 43.3687 27.5707C38.8713 25.0604 41.2445 25.138 41.8018 25.0475C41.8018 25.0475 35.8809 24.3018 29.9251 28.0561C30.2752 27.5133 30.9864 26.8332 30.9864 26.8332C28.5487 28.1505 27.7861 29.1904 27.5627 29.8037C27.3497 29.9871 27.1376 30.178 26.9267 30.3755C25.0029 30.4114 23.3794 32.1887 23.3794 32.1887L24.7527 31.7511C22.3986 32.7512 22.5295 35.4398 22.5295 35.4398L23.4881 34.6678C23.2692 34.9476 23.0808 35.245 22.9196 35.556C21.585 38.1378 22.166 41.681 22.9059 44.2381C23.0744 44.8844 23.3114 45.8466 23.5037 46.8379C21.6479 45.1073 22.0331 49.3585 22.0331 49.3585C22.1114 50.3323 22.9652 51.7571 22.9652 51.7571C23.4013 52.8408 24.0989 54.4246 24.0989 54.4246C24.624 55.794 25.0709 55.9386 25.3671 55.7893C25.6848 56.9213 29.8791 63.6846 37.0065 63.6846C44.1335 63.6846 48.2539 57.0893 48.6652 55.4742C49.2532 55.9422 49.5578 54.859 49.5578 54.859Z" fill="#89959C"/>
<path fill-rule="evenodd" clip-rule="evenodd" d="M40.0799 32.8846H33.9302C31.0458 32.8846 27.9921 34.2325 26.5286 36.0414C24.9106 38.0415 24.4273 40.6464 24.379 42.2605C24.3059 44.6948 24.648 47.5379 25.2382 51.5503C25.6092 54.075 27.3222 58.1545 28.1483 59.3567C28.9585 60.898 33.2932 64.4453 37.0052 64.4744C40.7173 64.4453 45.0513 60.898 45.8618 59.3567C46.6883 58.1545 48.4005 54.075 48.7723 51.5503C49.3621 47.5379 49.7046 44.6948 49.6312 42.2605C49.5824 40.6464 49.0999 38.0415 47.4816 36.0414C46.0177 34.2325 42.9647 32.8846 40.0799 32.8846Z" fill="#FFF1E3" stroke="#89959C" stroke-width="1.6"/>
<path fill-rule="evenodd" clip-rule="evenodd" d="M86.665 61.9684C95.1327 61.4687 97.8525 59.9101 98.6715 59.1889L97.341 57.973C97.982 58.4068 98.5584 58.6863 98.9752 58.8573C98.9933 58.8301 99 58.8152 99 58.8152C97.1995 57.4566 95.9129 52.1146 95.9129 52.1146C94.8843 49.4885 94.1124 39.9818 94.1124 39.9818C94.1124 37.2654 93.0838 34.4584 93.0838 34.4584C91.197 28.7542 86.9955 26.1283 86.9955 26.1283C86.6507 25.9129 86.3011 25.7207 85.9509 25.5454C85.601 25.3855 83.4253 24.4285 80.7523 24.0854C79.1169 23.92 77.9918 24.0458 77.9918 24.0458C77.0941 24.1214 76.2526 24.2852 75.4662 24.5145C74.265 24.9405 73.1272 25.6481 72.161 26.7525C72.161 26.7525 72.1545 26.7334 72.1018 26.7293C68.6204 25.3389 66.0882 32.734 66.0827 32.7501C65.3372 34.5398 64.658 37.5597 64.658 37.5597L64.1434 43.6033C63.7573 48.7645 61.7639 55.216 61.7639 55.216C60.992 57.593 59.5128 58.7474 59.5128 58.7474C59.8528 59.0914 60.2687 59.3988 60.7397 59.673C61.0103 59.5357 61.6564 59.191 62.2693 58.7366L61.2284 59.9357C63.5371 61.0882 66.8583 61.5776 69.2625 61.7855C71.1009 61.9684 72.0225 61.9369 72.2429 61.9387L86.665 61.9684Z" fill="#89959C"/>
<path fill-rule="evenodd" clip-rule="evenodd" d="M82.3312 32.6872H76.1815C73.2971 32.6872 70.2434 34.035 68.7798 35.844C67.1618 37.8441 66.6786 40.449 66.6302 42.063C66.5572 44.4973 66.8993 47.3405 67.4895 51.3528C67.8605 53.8776 69.5735 57.957 70.3996 59.1593C71.2097 60.7005 75.5445 64.2479 79.2565 64.2769C82.9686 64.2479 87.3026 60.7005 88.1131 59.1593C88.9396 57.957 90.6518 53.8776 91.0236 51.3528C91.6134 47.3405 91.9559 44.4973 91.8824 42.063C91.8337 40.449 91.3512 37.8441 89.7328 35.844C88.2689 34.035 85.216 32.6872 82.3312 32.6872Z" fill="#FFF1E3" stroke="#89959C" stroke-width="1.6"/>
</svg>
