<svg width="118" height="89" viewBox="0 0 118 89" fill="none" xmlns="http://www.w3.org/2000/svg">
<path fill-rule="evenodd" clip-rule="evenodd" d="M48.7007 53.9685C49.2807 54.4223 49.581 53.372 49.581 53.372C50.0641 52.1086 51.5192 48.9819 51.5192 48.9819C52.1141 47.9338 51.9891 46.4849 51.9891 46.4849C52.0624 44.9962 51.3413 44.6411 50.5513 45.4804C50.636 45.0197 50.8031 44.0194 50.8769 43.5281C51.9467 39.7156 50.188 34.4105 50.188 34.4105C50.0617 33.9917 50.137 34.2235 50.0189 33.9162C49.3817 32.4569 47.8764 29.3269 43.4766 26.9129C39.0407 24.4788 41.3814 24.5541 41.9311 24.4663C41.9311 24.4663 36.0912 23.7433 30.2168 27.3835C30.5621 26.8572 31.2636 26.1978 31.2636 26.1978C28.8592 27.475 28.107 28.4833 27.8867 29.078C27.6766 29.2558 27.4673 29.4409 27.2593 29.6324C25.3618 29.6672 23.7606 31.3906 23.7606 31.3906L25.1151 30.9662C22.7932 31.936 22.9223 34.5428 22.9223 34.5428L23.8678 33.7943C23.6519 34.0656 23.466 34.354 23.3071 34.6555C21.9907 37.1589 22.5638 40.5944 23.2936 43.0738C23.4597 43.7004 23.6935 44.6334 23.8832 45.5946C22.0528 43.9166 22.4327 48.0386 22.4327 48.0386C22.5099 48.9828 23.352 50.3644 23.352 50.3644C23.7822 51.4151 24.4702 52.9507 24.4702 52.9507C24.9881 54.2786 25.4289 54.4188 25.7211 54.274C26.0344 55.3716 30.1714 61.9294 37.2014 61.9294C44.2309 61.9294 48.295 55.5345 48.7007 53.9685Z" fill="#89959C"/>
<path fill-rule="evenodd" clip-rule="evenodd" d="M40.2175 32.5647H34.1826C31.352 32.5647 28.3553 33.8957 26.9191 35.6819C25.3313 37.6569 24.8571 40.2291 24.8096 41.8229C24.7379 44.2267 25.0736 47.0342 25.6528 50.9962C26.0169 53.4893 28.1813 57.5176 28.992 58.7048C29.7871 60.2267 33.5574 65.1635 37.2002 65.1922C40.8429 65.1635 44.6126 60.2267 45.408 58.7048C46.219 57.5176 48.3827 53.4893 48.7476 50.9962C49.3264 47.0342 49.6625 44.2267 49.5904 41.8229C49.5426 40.2291 49.0691 37.6569 47.4809 35.6819C46.0444 33.8957 43.0484 32.5647 40.2175 32.5647Z" fill="#FFF1E3" stroke="#89959C" stroke-width="1.6"/>
<path fill-rule="evenodd" clip-rule="evenodd" d="M88.4046 61.7258C96.6392 61.2328 99.2841 59.6952 100.081 58.9836L98.7867 57.7841C99.41 58.2121 99.9706 58.4879 100.376 58.6565C100.393 58.6297 100.4 58.6149 100.4 58.6149C98.6491 57.2747 97.3979 52.0045 97.3979 52.0045C96.3976 49.4137 95.647 40.0349 95.647 40.0349C95.647 37.355 94.6467 34.5858 94.6467 34.5858C92.8119 28.9583 88.726 26.3677 88.726 26.3677C88.3907 26.1552 88.0508 25.9656 87.7102 25.7926C87.3699 25.6349 85.2541 24.6908 82.6547 24.3523C81.0644 24.1891 79.9703 24.3132 79.9703 24.3132C79.0973 24.3878 78.2789 24.5494 77.5141 24.7756C76.346 25.1959 75.2395 25.894 74.3 26.9835C74.3 26.9835 74.2937 26.9647 74.2424 26.9606C70.8568 25.5889 68.3944 32.8846 68.389 32.9005C67.664 34.6661 67.0036 37.6453 67.0036 37.6453L66.5031 43.6077C66.1277 48.6995 64.1891 55.0642 64.1891 55.0642C63.4385 57.4092 62 58.5481 62 58.5481C62.3307 58.8875 62.7351 59.1907 63.1931 59.4612C63.4563 59.3258 64.0845 58.9857 64.6806 58.5374L63.6684 59.7204C65.9135 60.8574 69.1432 61.3403 71.4812 61.5453C73.2691 61.7258 74.1652 61.6947 74.3796 61.6965L88.4046 61.7258Z" fill="#89959C"/>
<path fill-rule="evenodd" clip-rule="evenodd" d="M91.2758 35.588C89.8629 33.7612 86.9163 32.4 84.1321 32.4H78.1967C75.4128 32.4 72.4655 33.7612 71.053 35.588C69.4914 37.6079 69.0249 40.2386 68.9783 41.8686C68.9078 44.327 69.2379 47.1983 69.8076 51.2503C70.1657 53.8001 71.3435 57.431 72.1408 58.6452C72.9227 60.2017 77.5819 65.2507 81.1646 65.28C84.7473 65.2507 89.4057 60.2017 90.1879 58.6452C90.9856 57.431 92.1627 53.8001 92.5216 51.2503C93.0908 47.1983 93.4214 44.327 93.3505 41.8686C93.3035 40.2386 92.8378 37.6079 91.2758 35.588Z" fill="#FFF1E3"/>
<path d="M91.2758 35.588C89.8629 33.7612 86.9163 32.4 84.1321 32.4H78.1967C75.4128 32.4 72.4655 33.7612 71.053 35.588C69.4914 37.6079 69.0249 40.2386 68.9783 41.8686C68.9078 44.327 69.2379 47.1983 69.8076 51.2503C70.1657 53.8001 71.3435 57.431 72.1408 58.6452C72.9227 60.2017 77.5819 65.2507 81.1646 65.28C84.7473 65.2507 89.4057 60.2017 90.1879 58.6452C90.9856 57.431 92.1627 53.8001 92.5216 51.2503C93.0908 47.1983 93.4214 44.327 93.3505 41.8686C93.3035 40.2386 92.8378 37.6079 91.2758 35.588" stroke="#89959C" stroke-width="1.824"/>
</svg>
