<svg width="118" height="89" viewBox="0 0 118 89" fill="none" xmlns="http://www.w3.org/2000/svg">
<path fill-rule="evenodd" clip-rule="evenodd" d="M48.7007 54.6224C49.2807 55.0772 49.581 54.0247 49.581 54.0247C50.0641 52.7587 51.5192 49.6254 51.5192 49.6254C52.1141 48.5751 51.9891 47.1232 51.9891 47.1232C52.0624 45.6314 51.3413 45.2756 50.5513 46.1166C50.636 45.655 50.8031 44.6525 50.8769 44.1602C51.9467 40.3397 50.188 35.0236 50.188 35.0236C50.0617 34.6039 50.137 34.8361 50.0189 34.5282C49.3817 33.0659 47.8764 29.9294 43.4766 27.5103C39.0407 25.0711 41.3814 25.1466 41.9311 25.0586C41.9311 25.0586 36.0912 24.334 30.2168 27.9818C30.5621 27.4545 31.2636 26.7937 31.2636 26.7937C28.8592 28.0736 28.107 29.084 27.8867 29.6799C27.6766 29.8581 27.4673 30.0436 27.2593 30.2355C25.3618 30.2704 23.7606 31.9973 23.7606 31.9973L25.1151 31.5721C22.7932 32.5439 22.9223 35.1562 22.9223 35.1562L23.8678 34.406C23.6519 34.678 23.466 34.9669 23.3071 35.2691C21.9907 37.7777 22.5638 41.2204 23.2936 43.705C23.4597 44.3329 23.6935 45.2679 23.8832 46.231C22.0528 44.5495 22.4327 48.6801 22.4327 48.6801C22.5099 49.6263 23.352 51.0108 23.352 51.0108C23.7822 52.0637 24.4702 53.6025 24.4702 53.6025C24.9881 54.9332 25.4289 55.0737 25.7211 54.9285C26.0344 56.0285 30.1714 62.6 37.2014 62.6C44.2309 62.6 48.295 56.1917 48.7007 54.6224Z" fill="#89959C"/>
<path fill-rule="evenodd" clip-rule="evenodd" d="M24.8016 46.0688C24.7937 49.5483 24.7409 53.9443 27.404 58.0607C29.1745 60.7973 33.9079 63.4 37.1174 63.4C40.4346 63.4 44.6148 61.0209 46.5428 58.3966C49.143 54.8573 49.6026 50.2843 49.6 46.0688C49.5974 41.8533 47.9077 33 37.0592 33C26.0006 33 24.809 42.7687 24.8016 46.0688Z" fill="#FFF1E3" stroke="#89959C" stroke-width="1.6"/>
<path fill-rule="evenodd" clip-rule="evenodd" d="M88.4046 61.9231C96.6392 61.4371 99.2841 59.9214 100.081 59.2201L98.7867 58.0376C99.41 58.4595 99.9706 58.7313 100.376 58.8976C100.393 58.8712 100.4 58.8566 100.4 58.8566C98.6491 57.5355 97.3979 52.3405 97.3979 52.3405C96.3976 49.7867 95.647 40.5418 95.647 40.5418C95.647 37.9002 94.6467 35.1705 94.6467 35.1705C92.8119 29.6233 88.726 27.0697 88.726 27.0697C88.3907 26.8602 88.0508 26.6733 87.7102 26.5028C87.3699 26.3473 85.2541 25.4167 82.6547 25.0831C81.0644 24.9222 79.9703 25.0445 79.9703 25.0445C79.0973 25.118 78.2789 25.2773 77.5141 25.5003C76.346 25.9146 75.2395 26.6028 74.3 27.6767C74.3 27.6767 74.2937 27.6581 74.2424 27.6541C70.8568 26.302 68.3944 33.4935 68.389 33.5092C67.664 35.2496 67.0036 38.1863 67.0036 38.1863L66.5031 44.0636C66.1277 49.0827 64.1891 55.3565 64.1891 55.3565C63.4385 57.6681 62 58.7907 62 58.7907C62.3307 59.1253 62.7351 59.4242 63.1931 59.6908C63.4563 59.5573 64.0845 59.2221 64.6806 58.7802L63.6684 59.9463C65.9135 61.0671 69.1432 61.543 71.4812 61.7452C73.2691 61.9231 74.1652 61.8924 74.3796 61.8942L88.4046 61.9231Z" fill="#89959C"/>
<path fill-rule="evenodd" clip-rule="evenodd" d="M67.8475 45.5382C67.8395 48.8437 67.7855 53.9515 70.5071 57.862C72.3164 60.4617 77.4663 63.4 80.7462 63.4C84.1361 63.4 88.7207 60.6741 90.691 58.1811C93.3482 54.8188 93.8179 49.5429 93.8153 45.5382C93.8127 41.5335 91.7732 33.1231 80.6867 33.1231C69.3854 33.1231 67.8551 42.4032 67.8475 45.5382Z" fill="#FFF1E3" stroke="#89959C" stroke-width="1.824"/>
</svg>
