<svg width="83" height="83" viewBox="0 0 83 83" fill="none" xmlns="http://www.w3.org/2000/svg">
<path fill-rule="evenodd" clip-rule="evenodd" d="M62.8136 65.6695C62.7805 65.5673 62.6592 65.2302 62.6592 65.2302C62.6162 65.1217 62.5717 65.0153 62.5246 64.9129C62.5246 64.9129 62.4654 64.806 62.4267 64.7727C62.0258 64.4324 60.3472 63.1369 56.7878 61.9567C56.7878 61.9567 51.0734 59.6394 50.8035 59.4145C50.5336 59.1895 48.9136 58.4922 48.9136 58.4922C48.9136 58.4922 48.7558 58.2562 48.5773 57.7617C48.4226 57.2726 48.2648 56.5911 48.1866 55.6975L48.1358 55.6796C48.1339 55.6604 48.1314 55.6428 48.1296 55.6234H47.9762L47.3867 55.4159L47.0915 52.7446V51.3553C47.1037 51.3103 47.1176 51.2642 47.1336 51.217C47.3872 50.8778 47.5859 50.5153 47.7413 50.1513C48.0936 49.5407 48.4677 48.6274 48.7374 47.489C49.1235 47.819 49.3234 47.0554 49.3234 47.0554C49.6446 46.137 50.613 43.8641 50.613 43.8641C51.0086 43.1022 50.9254 42.0489 50.9254 42.0489C50.9744 40.9666 50.4946 40.7086 49.969 41.3186C50.0251 40.9838 50.1365 40.2566 50.1854 39.8994C50.8973 37.1279 49.727 33.2714 49.727 33.2714C49.6432 32.967 49.6931 33.1354 49.6147 32.9121C49.1906 31.8513 48.1891 29.5761 45.2616 27.821C42.3101 26.0516 43.8674 26.1063 44.2333 26.0425C44.2333 26.0425 40.3474 25.5169 36.4389 28.1631C36.6686 27.7806 37.1354 27.3012 37.1354 27.3012C35.5355 28.2297 35.035 28.9626 34.8885 29.395C34.7485 29.5242 34.6094 29.6588 34.4709 29.798C33.2085 29.8233 32.143 31.0761 32.143 31.0761L33.0443 30.7676C31.4992 31.4727 31.5851 33.3676 31.5851 33.3676L32.2144 32.8234C32.0706 33.0207 31.9469 33.2303 31.8413 33.4495C30.9654 35.2695 31.3466 37.7668 31.8322 39.5694C31.9429 40.0247 32.0982 40.703 32.2245 41.4017C31.0066 40.1818 31.2594 43.1783 31.2594 43.1783C31.3107 43.8647 31.871 44.869 31.871 44.869C32.1573 45.6329 32.6152 46.7492 32.6152 46.7492C32.9598 47.7145 33.253 47.8164 33.4475 47.7111C33.656 48.5092 33.9216 49.3756 34.207 49.931C34.207 49.931 34.2178 49.9498 34.2357 49.9812C34.5802 50.818 34.961 51.2079 34.961 51.2079L34.92 53.6108C34.8211 54.5153 34.7213 55.422 34.7213 55.422L33.933 55.633C33.933 55.633 33.7394 57.5262 33.2698 58.5111C32.6187 58.8174 27.0702 61.421 25.6731 61.8446C25.6731 61.8446 21.4182 63.3436 19.7502 64.7926C19.7502 64.7926 19.5509 65.0225 19.5034 65.1322C19.4944 65.1537 19.4864 65.1764 19.4776 65.1983C19.4776 65.1983 19.3747 65.4556 19.3136 65.6534V65.6537C19.1446 66.1894 19.0301 66.7962 19 67.4914V69.1777H63.1251V67.4914C63.0952 66.802 62.9805 66.2017 62.8136 65.6695" fill="#5B6971"/>
</svg>
