<svg width="77" height="77" viewBox="0 0 77 77" fill="none" xmlns="http://www.w3.org/2000/svg">
<path fill-rule="evenodd" clip-rule="evenodd" d="M65.7632 51.8531C64.6067 54.5519 63.7201 55.5544 61.1368 56.4794C58.5536 57.4051 52.115 57.4822 49.5318 55.9399C46.9485 54.3976 44.5968 49.347 45.0207 45.954C45.4449 42.5613 51.1513 41.4432 51.1513 41.4432C60.0959 40.1324 64.4139 41.7519 65.8019 42.9084C67.1899 44.0652 66.92 49.1542 65.7632 51.8531ZM30.0818 55.9395C27.4985 57.4819 21.06 57.4047 18.4767 56.4794C15.8938 55.554 15.0069 54.5515 13.8504 51.8527C12.6939 49.1539 12.424 44.0646 13.812 42.9081C15.2 41.7516 19.5183 40.1321 28.4626 41.4432C28.4626 41.4432 34.1689 42.5613 34.5932 45.954C35.0171 49.347 32.665 54.3976 30.0818 55.9395ZM71.2258 40.7083C62.5507 37.25 53.3687 38.8008 46.3397 40.5376C43.752 41.1771 41.0698 41.3365 41.043 41.3382L39.8097 41.3504L38.5855 41.3385C38.544 41.3365 35.8615 41.1767 33.2742 40.5373C19.8916 37.231 12.9448 38.8916 8.38779 40.7076C8.11515 40.8164 7.93906 41.0761 7.93906 41.3695L7.93872 44.2848C7.93872 44.4963 8.03187 44.6955 8.19402 44.8315C8.76683 45.3101 9.50519 45.9795 9.76831 46.4469C9.91381 46.7053 10.2956 47.6646 10.9071 49.2086C11.6985 51.2082 12.7826 53.9461 13.2147 54.6416C13.6134 55.2845 15.8544 58.5041 20.8108 58.7628C25.314 58.998 29.906 59.0293 32.235 56.6606C34.5619 54.2945 37.1812 47.9267 37.2074 47.8628C37.4069 47.3063 38.2068 46.2562 39.8069 46.3432C39.8685 46.3398 39.9297 46.3381 39.9892 46.3381C41.4621 46.3381 42.2148 47.3284 42.4109 47.8754C42.4323 47.927 45.0516 54.2946 47.3786 56.6609C49.7079 59.0293 54.3005 58.9987 58.8028 58.7631C63.7585 58.5044 65.9998 55.2848 66.3989 54.6423C66.8309 53.9468 67.9147 51.2085 68.7064 49.2093C69.3176 47.6653 69.6997 46.7056 69.8452 46.4476C70.1084 45.9798 70.8467 45.3108 71.4199 44.8318C71.5813 44.6962 71.6745 44.497 71.6745 44.2852V41.3698C71.6745 41.0764 71.4984 40.8167 71.2258 40.7083Z" fill="#3A4850"/>
<path d="M22.3348 47.3682C22.2685 47.3019 22.1607 47.3019 22.0944 47.3682L17.5052 51.9575C17.4389 52.0238 17.4389 52.1315 17.5052 52.1978C17.5385 52.2311 17.582 52.2478 17.6252 52.2478C17.6687 52.2478 17.7122 52.2311 17.7455 52.1978L22.3348 47.6085C22.4011 47.5423 22.4011 47.4345 22.3348 47.3682" stroke="#B0BDC5" stroke-width="0.55"/>
<path d="M28.8934 44.9886L19.8848 53.9971C19.8185 54.0634 19.8185 54.1712 19.8848 54.2375C19.9181 54.2708 19.9616 54.2874 20.0051 54.2874C20.0483 54.2874 20.0918 54.2708 20.1251 54.2375L29.1337 45.2289C29.2 45.1626 29.2 45.0548 29.1337 44.9886C29.0674 44.9223 28.9597 44.9223 28.8934 44.9886" stroke="#B0BDC5" stroke-width="0.55"/>
<path d="M55.3095 47.3682C55.2432 47.3019 55.1355 47.3019 55.0692 47.3682L50.4799 51.9575C50.4136 52.0238 50.4136 52.1315 50.4799 52.1978C50.5132 52.2311 50.5567 52.2478 50.5999 52.2478C50.6434 52.2478 50.6869 52.2311 50.7202 52.1978L55.3095 47.6085C55.3758 47.5423 55.3758 47.4345 55.3095 47.3682" stroke="#B0BDC5" stroke-width="0.55"/>
<path d="M61.8681 44.9886L52.8595 53.9971C52.7932 54.0634 52.7932 54.1712 52.8595 54.2375C52.8928 54.2708 52.9364 54.2874 52.9799 54.2874C53.023 54.2874 53.0666 54.2708 53.0999 54.2375L62.1084 45.2289C62.1747 45.1626 62.1747 45.0548 62.1084 44.9886C62.0421 44.9223 61.9344 44.9223 61.8681 44.9886" stroke="#B0BDC5" stroke-width="0.55"/>
</svg>
