<svg width="93" height="89" viewBox="0 0 93 89" fill="none" xmlns="http://www.w3.org/2000/svg">
<path fill-rule="evenodd" clip-rule="evenodd" d="M63.8946 56.8247C64.5147 55.1749 66.3827 51.0917 66.3827 51.0917C67.1465 49.7229 66.9859 47.8308 66.9859 47.8308C67.0801 45.8866 66.1543 45.423 65.1402 46.5189C65.2489 45.9174 65.4634 44.611 65.5582 43.9694C66.9316 38.9906 64.6737 32.0627 64.6737 32.0627C64.5117 31.5157 64.6083 31.8184 64.4567 31.4171C63.6386 29.5115 61.7061 25.4239 56.0578 22.2714C50.3631 19.0927 53.368 19.191 54.0737 19.0763C54.0737 19.0763 46.5765 18.1321 39.0351 22.8859C39.4784 22.1987 40.3789 21.3375 40.3789 21.3375C37.2921 23.0055 36.3265 24.3222 36.0437 25.0988C35.7739 25.3311 35.5053 25.5728 35.2383 25.8229C32.8023 25.8683 30.7466 28.1189 30.7466 28.1189L32.4856 27.5647C29.5047 28.8311 29.6705 32.2354 29.6705 32.2354L30.8843 31.2579C30.6071 31.6123 30.3685 31.9888 30.1644 32.3826C28.4746 35.6518 29.2102 40.1383 30.1471 43.3762C30.3605 44.1945 30.6605 45.4129 30.9041 46.6681C28.5542 44.4768 29.042 49.8597 29.042 49.8597C29.1411 51.0928 30.2222 52.897 30.2222 52.897C30.7744 54.2692 31.6576 56.2746 31.6576 56.2746C32.3226 58.0087 32.8884 58.1918 33.2635 58.0026C33.6658 59.436 38.9767 68 48.0018 68C57.0262 68 62.2436 59.6487 62.7644 57.6037C63.509 58.1964 63.8946 56.8247 63.8946 56.8247Z" fill="#89959C"/>
<path fill-rule="evenodd" clip-rule="evenodd" d="M51.8934 29H44.1065C40.4541 29 36.5874 30.7067 34.7343 32.9972C32.6855 35.5298 32.0736 38.8282 32.0124 40.872C31.9198 43.9544 32.353 47.5545 33.1003 52.6351C33.5701 55.832 35.7392 60.9975 36.7852 62.5199C37.8111 64.4715 43.2999 68.9632 48.0002 69C52.7005 68.9632 58.1883 64.4715 59.2147 62.5199C60.2612 60.9975 62.4293 55.832 62.9 52.6351C63.6469 47.5545 64.0805 43.9544 63.9875 40.872C63.9259 38.8282 63.3149 35.5298 61.2656 32.9972C59.412 30.7067 55.5462 29 51.8934 29Z" fill="#FFF1E3" stroke="#89959C" stroke-width="2"/>
</svg>
