<svg width="78" height="78" viewBox="0 0 78 78" fill="none" xmlns="http://www.w3.org/2000/svg">
<path fill-rule="evenodd" clip-rule="evenodd" d="M45.5 43.95L43.967 46.1976V48.5772L44.7335 50.3505L45.5 52.7019L46.5 54.4L48.6243 57.7252L53.8966 58.9893L61.0944 58.4021L64.1336 56.4942L66.7403 52.7019C66.7403 52.7019 67.5593 48.4236 67.5593 47.9055C67.5593 47.3875 66.7403 44.5916 66.7403 44.5916C66.7403 44.5916 65.4189 42.8127 64.7763 42.8127C64.1336 42.8127 59.2484 42.2139 58.3661 42.2139C57.4839 42.2139 51.153 42.2141 51.153 42.2141L48.2397 43.4247L45.5 43.95Z" fill="url(#paint0_linear_1619_28)"/>
<path fill-rule="evenodd" clip-rule="evenodd" d="M13.5999 43.95L12.067 46.1976V48.5772L12.8335 50.3505L13.5999 52.7019V54.6798L16.7243 57.7252L21.9966 58.9893L29.1944 58.4021L31.8547 56.2995L33.9088 53.5065C33.9088 53.5065 35.4095 47.6002 35.4095 47.0821C35.4095 46.5641 33.9088 44.3534 33.9088 44.3534C33.9088 44.3534 32.4973 43.0425 31.8547 43.0425C31.212 43.0425 27.3483 42.2139 26.4661 42.2139C25.5839 42.2139 19.253 42.2141 19.253 42.2141L15.1825 42.2139L13.5999 43.95Z" fill="url(#paint1_linear_1619_28)"/>
<path fill-rule="evenodd" clip-rule="evenodd" d="M65.7632 53.1118C64.6067 55.8107 63.7201 56.8132 61.1368 57.7382C58.5536 58.6638 52.115 58.741 49.5318 57.1987C46.9485 55.6563 44.5968 50.6058 45.0207 47.2128C45.4449 43.8201 51.1513 42.702 51.1513 42.702C60.0959 41.3912 64.4139 43.0107 65.8019 44.1672C67.1899 45.324 66.92 50.413 65.7632 53.1118ZM30.0818 57.1983C27.4985 58.7407 21.06 58.6635 18.4767 57.7382C15.8938 56.8128 15.0069 55.8103 13.8504 53.1115C12.6939 50.4127 12.424 45.3233 13.812 44.1669C15.2 43.0104 19.5183 41.3909 28.4626 42.702C28.4626 42.702 34.1689 43.8201 34.5932 47.2128C35.0171 50.6058 32.665 55.6563 30.0818 57.1983ZM71.2258 41.9671C62.5507 38.5088 53.3687 40.0596 46.3397 41.7964C43.752 42.4358 41.0698 42.5953 41.043 42.597L39.8097 42.6092L38.5855 42.5973C38.544 42.5953 35.8615 42.4355 33.2742 41.7961C19.8916 38.4898 12.9448 40.1504 8.38779 41.9664C8.11515 42.0752 7.93906 42.3349 7.93906 42.6283L7.93872 45.5436C7.93872 45.7551 8.03187 45.9543 8.19402 46.0903C8.76683 46.5689 9.50519 47.2383 9.76831 47.7057C9.91381 47.964 10.2956 48.9234 10.9071 50.4674C11.6985 52.467 12.7826 55.2049 13.2147 55.9004C13.6134 56.5433 15.8544 59.7629 20.8108 60.0216C25.314 60.2568 29.906 60.2881 32.235 57.9194C34.5619 55.5533 37.1812 49.1855 37.2074 49.1216C37.4069 48.5651 38.2068 47.515 39.8069 47.602C39.8685 47.5986 39.9297 47.5969 39.9892 47.5969C41.4621 47.5969 42.2148 48.5872 42.4109 49.1341C42.4323 49.1858 45.0516 55.5533 47.3786 57.9197C49.7079 60.2881 54.3005 60.2575 58.8028 60.0219C63.7585 59.7632 65.9998 56.5436 66.3989 55.9011C66.8309 55.2056 67.9147 52.4673 68.7064 50.4681C69.3176 48.9241 69.6997 47.9644 69.8452 47.7064C70.1084 47.2386 70.8467 46.5696 71.4199 46.0906C71.5813 45.955 71.6745 45.7558 71.6745 45.544V42.6286C71.6745 42.3352 71.4984 42.0755 71.2258 41.9671Z" fill="#3A4850"/>
<path d="M22.3348 48.627C22.2685 48.5607 22.1607 48.5607 22.0944 48.627L17.5052 53.2163C17.4389 53.2825 17.4389 53.3903 17.5052 53.4566C17.5385 53.4899 17.582 53.5066 17.6252 53.5066C17.6687 53.5066 17.7122 53.4899 17.7455 53.4566L22.3348 48.8673C22.4011 48.801 22.4011 48.6933 22.3348 48.627" stroke="white" stroke-width="0.55"/>
<path d="M28.8934 46.2473L19.8848 55.2559C19.8185 55.3222 19.8185 55.43 19.8848 55.4963C19.9181 55.5296 19.9616 55.5462 20.0051 55.5462C20.0483 55.5462 20.0918 55.5296 20.1251 55.4963L29.1337 46.4877C29.2 46.4214 29.2 46.3136 29.1337 46.2473C29.0674 46.1811 28.9597 46.1811 28.8934 46.2473" stroke="white" stroke-width="0.55"/>
<path d="M55.3095 48.627C55.2432 48.5607 55.1355 48.5607 55.0692 48.627L50.4799 53.2163C50.4136 53.2825 50.4136 53.3903 50.4799 53.4566C50.5132 53.4899 50.5567 53.5066 50.5999 53.5066C50.6434 53.5066 50.6869 53.4899 50.7202 53.4566L55.3095 48.8673C55.3758 48.801 55.3758 48.6933 55.3095 48.627" stroke="white" stroke-width="0.55"/>
<path d="M61.8681 46.2473L52.8595 55.2559C52.7932 55.3222 52.7932 55.43 52.8595 55.4963C52.8928 55.5296 52.9364 55.5462 52.9799 55.5462C53.023 55.5462 53.0666 55.5296 53.0999 55.4963L62.1084 46.4877C62.1747 46.4214 62.1747 46.3136 62.1084 46.2473C62.0421 46.1811 61.9344 46.1811 61.8681 46.2473" stroke="white" stroke-width="0.55"/>
<defs>
<linearGradient id="paint0_linear_1619_28" x1="44.0147" y1="42.2139" x2="44.0147" y2="58.9216" gradientUnits="userSpaceOnUse">
<stop stop-color="#89959C" stop-opacity="0.628551"/>
<stop offset="1" stop-color="#3A4850" stop-opacity="0.821351"/>
</linearGradient>
<linearGradient id="paint1_linear_1619_28" x1="12.1141" y1="42.2139" x2="12.1141" y2="58.9216" gradientUnits="userSpaceOnUse">
<stop stop-color="#89959C" stop-opacity="0.628551"/>
<stop offset="1" stop-color="#3A4850" stop-opacity="0.884943"/>
</linearGradient>
</defs>
</svg>
