<svg width="93" height="89" viewBox="0 0 93 89" fill="none" xmlns="http://www.w3.org/2000/svg">
<path fill-rule="evenodd" clip-rule="evenodd" d="M62.3759 57.028C63.1009 57.5965 63.4763 56.2809 63.4763 56.2809C64.0802 54.6984 65.899 50.7818 65.899 50.7818C66.6426 49.4689 66.4863 47.654 66.4863 47.654C66.578 45.7892 65.6765 45.3445 64.6891 46.3957C64.7949 45.8187 65.0038 44.5656 65.0961 43.9503C66.4334 39.1747 64.235 32.5295 64.235 32.5295C64.0771 32.0049 64.1712 32.2952 64.0236 31.9103C63.2271 30.0824 61.3455 26.1617 55.8457 23.1379C50.3009 20.0889 53.2267 20.1832 53.9139 20.0732C53.9139 20.0732 46.6139 19.1675 39.271 23.7273C39.7026 23.0681 40.5794 22.2421 40.5794 22.2421C37.5739 23.842 36.6337 25.105 36.3584 25.8499C36.0957 26.0727 35.8342 26.3045 35.5742 26.5444C33.2023 26.5879 31.2007 28.7467 31.2007 28.7467L32.8939 28.2151C29.9914 29.4298 30.1529 32.6952 30.1529 32.6952L31.3347 31.7576C31.0648 32.0975 30.8325 32.4587 30.6338 32.8364C28.9884 35.9721 29.7047 40.2755 30.617 43.3812C30.8247 44.1662 31.1168 45.3348 31.354 46.5388C29.066 44.4369 29.5409 49.6002 29.5409 49.6002C29.6374 50.7829 30.69 52.5135 30.69 52.5135C31.2277 53.8296 32.0877 55.7532 32.0877 55.7532C32.7352 57.4165 33.2861 57.5921 33.6513 57.4107C34.043 58.7856 39.2142 67 48.0017 67C56.7886 67 61.8688 58.9896 62.3759 57.028Z" fill="#89959C"/>
<path fill-rule="evenodd" clip-rule="evenodd" d="M32.5019 46.336C32.4921 50.6853 32.4261 56.1804 35.755 61.3259C37.9681 64.7466 43.8849 68 47.8967 68C52.0431 68 57.2684 65.0261 59.6785 61.7458C62.9287 57.3217 63.5032 51.6054 63.5 46.336C63.4967 41.0666 61.3845 30 47.8239 30C34.0006 30 32.5112 42.2109 32.5019 46.336Z" fill="#FFF1E3" stroke="#89959C" stroke-width="2"/>
</svg>
