<svg width="93" height="89" viewBox="0 0 93 89" fill="none" xmlns="http://www.w3.org/2000/svg">
<path fill-rule="evenodd" clip-rule="evenodd" d="M62.3759 56.4605C63.1009 57.0278 63.4763 55.715 63.4763 55.715C64.0802 54.1357 65.899 50.2274 65.899 50.2274C66.6426 48.9172 66.4863 47.1061 66.4863 47.1061C66.578 45.2452 65.6765 44.8014 64.6891 45.8504C64.7949 45.2746 65.0038 44.0242 65.0961 43.4101C66.4334 38.6444 64.235 32.0131 64.235 32.0131C64.0771 31.4896 64.1712 31.7793 64.0236 31.3952C63.2271 29.5711 61.3455 25.6586 55.8457 22.6411C50.3009 19.5985 53.2267 19.6926 53.9139 19.5828C53.9139 19.5828 46.6139 18.679 39.271 23.2293C39.7026 22.5715 40.5794 21.7472 40.5794 21.7472C37.5739 23.3437 36.6337 24.6041 36.3584 25.3475C36.0957 25.5698 35.8342 25.8011 35.5742 26.0405C33.2023 26.084 31.2007 28.2382 31.2007 28.2382L32.8939 27.7077C29.9914 28.9199 30.1529 32.1785 30.1529 32.1785L31.3347 31.2428C31.0648 31.582 30.8325 31.9424 30.6338 32.3193C28.9884 35.4486 29.7047 39.743 30.617 42.8422C30.8247 43.6255 31.1168 44.7918 31.354 45.9932C29.066 43.8957 29.5409 49.0482 29.5409 49.0482C29.6374 50.2285 30.69 51.9554 30.69 51.9554C31.2277 53.2688 32.0877 55.1884 32.0877 55.1884C32.7352 56.8482 33.2861 57.0234 33.6513 56.8424C34.043 58.2144 39.2142 66.4117 48.0017 66.4117C56.7886 66.4117 61.8688 58.418 62.3759 56.4605Z" fill="#89959C"/>
<path fill-rule="evenodd" clip-rule="evenodd" d="M51.7718 29.7058H44.2281C40.6899 29.7058 36.944 31.3695 35.1488 33.6023C33.1641 36.071 32.5713 39.2863 32.512 41.2786C32.4224 44.2833 32.842 47.7927 33.566 52.7452C34.0211 55.8615 36.7266 60.8969 37.74 62.3809C38.7338 64.2833 43.4467 70.4543 48.0002 70.4901C52.5536 70.4543 57.2657 64.2833 58.2599 62.3809C59.2738 60.8969 61.9784 55.8615 62.4344 52.7452C63.1579 47.7927 63.578 44.2833 63.4879 41.2786C63.4282 39.2863 62.8363 36.071 60.8511 33.6023C59.0554 31.3695 55.3104 29.7058 51.7718 29.7058Z" fill="#FFF1E3" stroke="#89959C" stroke-width="2"/>
</svg>
