<svg width="78" height="78" viewBox="0 0 78 78" fill="none" xmlns="http://www.w3.org/2000/svg">
<path fill-rule="evenodd" clip-rule="evenodd" d="M8.90877 40.9005C15.4554 40.2588 32.3234 41.4919 33.9903 45.1976C35.5073 51.4287 32.2568 55.6123 29.4824 57.5107C26.708 59.4092 14.4702 60.8699 9.88182 52.0419C5.29345 43.2139 7.2329 44.6528 8.90877 40.9005Z" fill="url(#paint0_linear_1619_34)"/>
<path fill-rule="evenodd" clip-rule="evenodd" d="M68.4225 40.9005C61.8759 40.2588 45.0079 41.4919 43.341 45.1976C41.4971 52.1125 46.3176 56.4502 47.8489 57.5107C49.6795 59.0571 61.857 62.165 67.4495 52.0419C72.0379 43.2139 70.0984 44.6528 68.4225 40.9005Z" fill="url(#paint1_linear_1619_34)"/>
<path fill-rule="evenodd" clip-rule="evenodd" d="M68.2457 45.2012C68.2457 52.9776 62.151 58.5712 54.4728 58.5712C46.7945 58.5712 43.3379 53.725 43.1875 48.6351C43.0972 44.6424 49.2665 42.6003 55.8821 41.2288C63.1699 40.3754 68.3761 40.223 68.2457 45.2012ZM33.9893 48.6351C33.8388 53.725 30.3795 58.5712 22.6951 58.5712C15.0108 58.5712 8.91116 52.9776 8.91116 45.2012C8.78067 40.223 13.991 40.3754 21.2846 41.2288C27.9055 42.6003 34.0797 44.6424 33.9893 48.6351ZM72.1479 42.5394C72.3285 38.2317 62.7486 39.0648 62.7486 39.0648C53.4796 38.9124 42.7361 43.8398 42.7361 43.8398C41.2236 44.6647 38.7538 44.7302 38.5903 44.7337C38.4265 44.7302 35.9548 44.6647 34.4411 43.8398C34.4411 43.8398 23.689 38.9124 14.4127 39.0648C14.4127 39.0648 4.8252 38.2317 5.0059 42.5394C5.0059 42.5394 4.53404 50.0981 12.0334 56.2549C12.0334 56.2549 16.8522 60.3389 22.8156 60.0952C22.8156 60.0952 29.5319 60.278 33.2364 55.4014C33.2364 55.4014 34.923 52.7869 36.1277 49.5528C36.1277 49.5528 36.3114 48.0498 38.5903 47.9853C40.8673 48.0498 41.0508 49.5528 41.0508 49.5528C42.2546 52.7869 43.9398 55.4014 43.9398 55.4014C47.6414 60.278 54.3523 60.0952 54.3523 60.0952C60.311 60.3389 65.126 56.2549 65.126 56.2549C72.6194 50.0981 72.1479 42.5394 72.1479 42.5394Z" fill="#3A4850"/>
<path d="M43.1875 48.6351L42.9375 48.6408L42.9376 48.6425L43.1875 48.6351ZM55.8821 41.2288L55.8531 40.9805L55.8421 40.9818L55.8314 40.984L55.8821 41.2288ZM8.91116 45.2012H9.16124L9.16107 45.1946L8.91116 45.2012ZM21.2846 41.2288L21.3353 40.984L21.3246 40.9818L21.3137 40.9805L21.2846 41.2288ZM62.7486 39.0648L62.7445 39.3148L62.7574 39.315L62.7702 39.3139L62.7486 39.0648ZM42.7361 43.8398L42.6319 43.6126L42.624 43.6162L42.6164 43.6203L42.7361 43.8398ZM38.5903 44.7337L38.5849 44.9838L38.5956 44.9836L38.5903 44.7337ZM34.4411 43.8398L34.5607 43.6203L34.5531 43.6162L34.5453 43.6126L34.4411 43.8398ZM14.4127 39.0648L14.3911 39.3139L14.4039 39.315L14.4168 39.3148L14.4127 39.0648ZM5.0059 42.5394L5.25541 42.5549L5.25622 42.5419L5.25568 42.5289L5.0059 42.5394ZM12.0334 56.2549L12.195 56.0641L12.192 56.0616L12.0334 56.2549ZM22.8156 60.0952L22.8224 59.8452L22.8139 59.845L22.8054 59.8454L22.8156 60.0952ZM33.2364 55.4014L33.4354 55.5527L33.4412 55.545L33.4464 55.537L33.2364 55.4014ZM36.1277 49.5528L36.362 49.6401L36.3723 49.6125L36.3758 49.5832L36.1277 49.5528ZM38.5903 47.9853L38.5973 47.7354L38.5903 47.7352L38.5832 47.7354L38.5903 47.9853ZM41.0508 49.5528L40.8026 49.5831L40.8062 49.6124L40.8165 49.64L41.0508 49.5528ZM43.9398 55.4014L43.7297 55.5369L43.7349 55.545L43.7407 55.5526L43.9398 55.4014ZM54.3523 60.0952L54.3625 59.8454L54.354 59.845L54.3455 59.8452L54.3523 60.0952ZM65.126 56.2549L64.9673 56.0617L64.9643 56.0642L65.126 56.2549ZM67.9957 45.2012C67.9957 52.8287 62.024 58.3212 54.4728 58.3212V58.8212C62.2779 58.8212 68.4957 53.1265 68.4957 45.2012H67.9957ZM54.4728 58.3212C50.6886 58.3212 47.9725 57.1286 46.1842 55.3354C44.3933 53.5396 43.511 51.1196 43.4374 48.6277L42.9376 48.6425C43.0144 51.2405 43.9356 53.7886 45.8302 55.6884C47.7273 57.5908 50.5786 58.8212 54.4728 58.8212V58.3212ZM43.4374 48.6295C43.3958 46.7877 44.7925 45.3444 47.132 44.1726C49.4592 43.007 52.6284 42.1587 55.9329 41.4736L55.8314 40.984C52.5202 41.6705 49.2969 42.529 46.9081 43.7255C44.5317 44.9158 42.8889 46.4898 42.9375 48.6408L43.4374 48.6295ZM55.9112 41.4771C59.564 41.0494 62.6445 40.8054 64.7926 41.2725C65.8607 41.5047 66.6694 41.9071 67.205 42.5242C67.7373 43.1375 68.0273 43.9947 67.9958 45.1946L68.4957 45.2077C68.5294 43.9186 68.2175 42.928 67.5826 42.1965C66.9509 41.4687 66.027 41.0291 64.8989 40.7839C62.6546 40.2959 59.488 40.5549 55.8531 40.9805L55.9112 41.4771ZM33.7394 48.6277C33.6657 51.1196 32.7827 53.5395 30.9905 55.3353C29.2007 57.1286 26.4824 58.3212 22.6951 58.3212V58.8212C26.5923 58.8212 29.4458 57.5908 31.3444 55.6885C33.2404 53.7887 34.1624 51.2406 34.2392 48.6425L33.7394 48.6277ZM22.6951 58.3212C15.1376 58.3212 9.16116 52.8285 9.16116 45.2012H8.66116C8.66116 53.1267 14.884 58.8212 22.6951 58.8212V58.3212ZM9.16107 45.1946C9.12962 43.9947 9.41982 43.1376 9.95254 42.5243C10.4886 41.9072 11.2979 41.5047 12.3669 41.2725C14.5169 40.8054 17.5999 41.0494 21.2556 41.4771L21.3137 40.9805C17.6758 40.5548 14.5068 40.2959 12.2608 40.7839C11.1318 41.0291 10.2072 41.4686 9.57506 42.1964C8.93962 42.9279 8.62745 43.9186 8.66124 45.2077L9.16107 45.1946ZM21.2339 41.4736C24.541 42.1587 27.7128 43.007 30.0418 44.1726C32.3833 45.3445 33.7811 46.7878 33.7394 48.6295L34.2393 48.6408C34.2879 46.4897 32.6438 44.9157 30.2656 43.7255C27.8749 42.529 24.6491 41.6705 21.3353 40.984L21.2339 41.4736ZM72.3977 42.5498C72.4477 41.3568 71.8117 40.5256 70.8848 39.9652C69.9688 39.4114 68.7485 39.1059 67.5504 38.9391C66.3473 38.7717 65.1419 38.7411 64.2396 38.752C63.7878 38.7574 63.4107 38.7733 63.1462 38.7878C63.0138 38.7951 62.9096 38.802 62.8382 38.8071C62.8024 38.8097 62.7749 38.8118 62.7562 38.8133C62.7468 38.8141 62.7396 38.8147 62.7347 38.8151C62.7323 38.8153 62.7304 38.8154 62.7291 38.8156C62.7284 38.8156 62.7279 38.8157 62.7276 38.8157C62.7274 38.8157 62.7272 38.8157 62.7271 38.8157C62.727 38.8157 62.7269 38.8157 62.7486 39.0648C62.7702 39.3139 62.7702 39.3139 62.7702 39.3139C62.7703 39.3139 62.7703 39.3139 62.7705 39.3138C62.7707 39.3138 62.771 39.3138 62.7715 39.3138C62.7726 39.3137 62.7741 39.3135 62.7763 39.3134C62.7806 39.313 62.7872 39.3125 62.7959 39.3118C62.8134 39.3104 62.8397 39.3083 62.8741 39.3059C62.9429 39.3009 63.0443 39.2941 63.1736 39.287C63.4322 39.2728 63.8021 39.2573 64.2456 39.2519C65.1339 39.2412 66.3122 39.2716 67.4815 39.4343C68.6558 39.5978 69.7966 39.8916 70.6261 40.3931C71.4447 40.888 71.9384 41.5681 71.8981 42.5289L72.3977 42.5498ZM62.7527 38.8148C58.0785 38.738 53.0454 39.9409 49.1913 41.1568C47.262 41.7654 45.6235 42.3787 44.467 42.8401C43.8887 43.0708 43.4307 43.2636 43.1169 43.3988C42.96 43.4665 42.8391 43.5197 42.7573 43.5562C42.7164 43.5744 42.6853 43.5884 42.6642 43.5979C42.6537 43.6027 42.6457 43.6063 42.6403 43.6087C42.6376 43.61 42.6356 43.6109 42.6342 43.6116C42.6335 43.6119 42.6329 43.6121 42.6325 43.6123C42.6323 43.6124 42.6322 43.6125 42.6321 43.6125C42.632 43.6126 42.6319 43.6126 42.7361 43.8398C42.8403 44.0671 42.8403 44.0671 42.8404 44.067C42.8405 44.067 42.8405 44.067 42.8407 44.0669C42.841 44.0668 42.8414 44.0666 42.842 44.0663C42.8432 44.0658 42.8451 44.0649 42.8475 44.0638C42.8525 44.0615 42.8601 44.0581 42.8702 44.0535C42.8904 44.0444 42.9207 44.0307 42.9607 44.0129C43.0408 43.9772 43.1598 43.9248 43.3148 43.858C43.6248 43.7244 44.0785 43.5334 44.6522 43.3045C45.7998 42.8467 47.4265 42.2378 49.3417 41.6336C53.1766 40.4238 58.1497 39.2392 62.7445 39.3148L62.7527 38.8148ZM42.6164 43.6203C41.9 44.011 40.9401 44.2286 40.1214 44.3473C39.3084 44.4653 38.6611 44.4821 38.5849 44.4837L38.5956 44.9836C38.683 44.9818 39.3524 44.9641 40.1932 44.8422C41.0284 44.7211 42.0597 44.4935 42.8558 44.0593L42.6164 43.6203ZM38.5956 44.4837C38.5193 44.4821 37.8715 44.4653 37.0578 44.3473C36.2384 44.2286 35.2778 44.011 34.5607 43.6203L34.3215 44.0594C35.1182 44.4935 36.1502 44.7211 36.9861 44.8422C37.8275 44.9641 38.4975 44.9818 38.5849 44.9836L38.5956 44.4837ZM34.4411 43.8398C34.5453 43.6126 34.5452 43.6125 34.5451 43.6125C34.545 43.6124 34.5448 43.6123 34.5446 43.6123C34.5442 43.6121 34.5437 43.6118 34.543 43.6115C34.5416 43.6109 34.5395 43.6099 34.5368 43.6087C34.5314 43.6062 34.5234 43.6026 34.5129 43.5979C34.4919 43.5884 34.4607 43.5743 34.4197 43.5561C34.3378 43.5197 34.2169 43.4664 34.0599 43.3988C33.7459 43.2635 33.2875 43.0708 32.7087 42.8401C31.5513 42.3787 29.9115 41.7654 27.9807 41.1567C24.1235 39.9409 19.0864 38.738 14.4086 38.8148L14.4168 39.3148C19.0153 39.2392 23.9924 40.4238 27.8304 41.6336C29.7471 42.2378 31.3751 42.8468 32.5236 43.3045C33.0978 43.5334 33.5519 43.7244 33.8621 43.858C34.0172 43.9248 34.1363 43.9773 34.2165 44.0129C34.2565 44.0308 34.2868 44.0444 34.3071 44.0535C34.3172 44.0581 34.3247 44.0615 34.3297 44.0638C34.3322 44.0649 34.3341 44.0658 34.3353 44.0663C34.3359 44.0666 34.3363 44.0668 34.3366 44.0669C34.3368 44.067 34.3368 44.067 34.3369 44.0671C34.337 44.0671 34.337 44.0671 34.4411 43.8398ZM14.4127 39.0648C14.4343 38.8157 14.4342 38.8157 14.4341 38.8157C14.434 38.8157 14.4339 38.8157 14.4337 38.8157C14.4333 38.8157 14.4328 38.8156 14.4322 38.8156C14.4308 38.8154 14.429 38.8153 14.4265 38.8151C14.4216 38.8147 14.4144 38.8141 14.4051 38.8133C14.3863 38.8118 14.3588 38.8097 14.323 38.8071C14.2515 38.802 14.1472 38.7951 14.0148 38.7878C13.75 38.7733 13.3726 38.7574 12.9205 38.752C12.0174 38.7411 10.8111 38.7717 9.6071 38.9391C8.40809 39.1058 7.18684 39.4114 6.2702 39.9652C5.34268 40.5255 4.70607 41.3567 4.75611 42.5498L5.25568 42.5289C5.21538 41.5682 5.70944 40.8881 6.52875 40.3932C7.35895 39.8916 8.50069 39.5978 9.67597 39.4343C10.8463 39.2716 12.0255 39.2412 12.9145 39.2519C13.3584 39.2573 13.7286 39.2728 13.9874 39.287C14.1168 39.2941 14.2183 39.3009 14.2871 39.3059C14.3216 39.3083 14.3478 39.3104 14.3653 39.3118C14.3741 39.3125 14.3807 39.313 14.385 39.3134C14.3871 39.3135 14.3887 39.3137 14.3897 39.3138C14.3903 39.3138 14.3906 39.3138 14.3908 39.3138C14.3909 39.3139 14.391 39.3139 14.3911 39.3139C14.3911 39.3139 14.3911 39.3139 14.4127 39.0648ZM5.0059 42.5394C4.75638 42.5238 4.75637 42.5239 4.75636 42.5241C4.75635 42.5242 4.75634 42.5244 4.75633 42.5246C4.7563 42.525 4.75627 42.5256 4.75624 42.5262C4.75616 42.5274 4.75607 42.5292 4.75595 42.5313C4.75571 42.5357 4.7554 42.5418 4.75503 42.5498C4.7543 42.5657 4.75338 42.5887 4.75253 42.6186C4.75082 42.6784 4.74938 42.7657 4.75028 42.8782C4.75207 43.1032 4.76323 43.4294 4.80036 43.8392C4.87463 44.6586 5.05288 45.8133 5.46847 47.1619C6.30018 49.861 8.0818 53.3342 11.8747 56.4481L12.192 56.0616C8.48561 53.0188 6.75349 49.6342 5.9463 47.0147C5.54244 45.7041 5.36994 44.5843 5.29832 43.7941C5.26252 43.399 5.25195 43.0866 5.25026 42.8742C5.24941 42.768 5.25078 42.6868 5.25232 42.6329C5.2531 42.6059 5.25391 42.5858 5.25451 42.5727C5.25481 42.5661 5.25505 42.5614 5.25522 42.5584C5.2553 42.5569 5.25535 42.5559 5.25539 42.5553C5.25541 42.555 5.25542 42.5548 5.25542 42.5548C5.25542 42.5547 5.25542 42.5548 5.25542 42.5548C5.25542 42.5548 5.25541 42.5549 5.0059 42.5394ZM12.0334 56.2549C11.8717 56.4456 11.8718 56.4456 11.8719 56.4457C11.872 56.4458 11.8721 56.4459 11.8722 56.446C11.8724 56.4461 11.8727 56.4464 11.8731 56.4467C11.8738 56.4473 11.8749 56.4482 11.8762 56.4493C11.8789 56.4516 11.8827 56.4548 11.8877 56.4589C11.8977 56.4672 11.9122 56.4792 11.9313 56.4947C11.9695 56.5257 12.0256 56.5706 12.0989 56.6274C12.2454 56.741 12.4604 56.9022 12.7367 57.0944C13.2892 57.4787 14.0878 57.9879 15.075 58.4893C17.0467 59.4908 19.786 60.4692 22.8258 60.3449L22.8054 59.8454C19.8818 59.9649 17.23 59.0231 15.3014 58.0435C14.3385 57.5544 13.5597 57.0578 13.0223 56.6839C12.7536 56.4971 12.5456 56.3411 12.4053 56.2323C12.3351 56.1779 12.2819 56.1353 12.2466 56.1066C12.2289 56.0923 12.2157 56.0814 12.2071 56.0742C12.2028 56.0706 12.1996 56.068 12.1976 56.0663C12.1966 56.0654 12.1958 56.0648 12.1954 56.0645C12.1952 56.0643 12.1951 56.0642 12.195 56.0641C12.195 56.0641 12.195 56.0641 12.195 56.0641C12.195 56.0641 12.195 56.0641 12.0334 56.2549ZM22.8156 60.0952C22.8088 60.3451 22.8089 60.3451 22.8091 60.3451C22.8092 60.3451 22.8093 60.3451 22.8095 60.3451C22.8098 60.3451 22.8102 60.3451 22.8108 60.3451C22.8118 60.3451 22.8133 60.3452 22.8152 60.3452C22.8189 60.3453 22.8242 60.3454 22.8312 60.3455C22.845 60.3457 22.8651 60.3459 22.8912 60.346C22.9434 60.3462 23.0196 60.3457 23.1174 60.3434C23.3129 60.3388 23.5949 60.3266 23.9443 60.2966C24.6428 60.2366 25.6126 60.1051 26.7004 59.8188C28.8732 59.2469 31.5372 58.0514 33.4354 55.5527L33.0373 55.2502C31.231 57.628 28.6847 58.7794 26.5732 59.3352C25.5188 59.6128 24.5781 59.7403 23.9015 59.7984C23.5634 59.8275 23.2918 59.8391 23.1055 59.8436C23.0124 59.8458 22.9407 59.8462 22.8927 59.846C22.8687 59.8459 22.8506 59.8457 22.8388 59.8456C22.8329 59.8455 22.8286 59.8454 22.8258 59.8453C22.8245 59.8453 22.8235 59.8453 22.8229 59.8453C22.8226 59.8452 22.8224 59.8452 22.8224 59.8452C22.8223 59.8452 22.8223 59.8452 22.8223 59.8452C22.8224 59.8452 22.8224 59.8452 22.8156 60.0952ZM33.2364 55.4014C33.4464 55.537 33.4465 55.5369 33.4465 55.5369C33.4465 55.5369 33.4465 55.5368 33.4466 55.5367C33.4467 55.5366 33.4468 55.5365 33.4469 55.5363C33.4471 55.5359 33.4475 55.5354 33.4479 55.5347C33.4488 55.5333 33.4501 55.5312 33.4518 55.5286C33.4552 55.5233 33.4602 55.5154 33.4667 55.5052C33.4797 55.4847 33.4988 55.4545 33.5234 55.415C33.5726 55.336 33.644 55.2199 33.7332 55.0708C33.9118 54.7725 34.1621 54.3414 34.4501 53.8089C35.0259 52.7444 35.7543 51.2713 36.362 49.6401L35.8934 49.4656C35.2963 51.0684 34.5791 52.5196 34.0104 53.571C33.7262 54.0963 33.4795 54.521 33.3042 54.814C33.2165 54.9605 33.1467 55.074 33.099 55.1506C33.0751 55.1889 33.0568 55.218 33.0445 55.2374C33.0383 55.2471 33.0337 55.2543 33.0306 55.2591C33.0291 55.2615 33.028 55.2633 33.0273 55.2644C33.0269 55.265 33.0266 55.2654 33.0265 55.2656C33.0264 55.2658 33.0263 55.2659 33.0263 55.2659C33.0263 55.2659 33.0263 55.2659 33.0263 55.2659C33.0263 55.2659 33.0263 55.2659 33.2364 55.4014ZM36.1277 49.5528C36.3758 49.5832 36.3758 49.5833 36.3758 49.5835C36.3758 49.5836 36.3758 49.5837 36.3758 49.5838C36.3757 49.584 36.3757 49.5842 36.3757 49.5844C36.3756 49.5847 36.3756 49.5849 36.3756 49.585C36.3756 49.5853 36.3756 49.5852 36.3756 49.5848C36.3758 49.584 36.3761 49.5818 36.3767 49.5784C36.3778 49.5717 36.38 49.56 36.3837 49.5441C36.391 49.5123 36.4041 49.4639 36.4263 49.4042C36.4707 49.2848 36.5511 49.122 36.6938 48.9565C36.9727 48.6328 37.5184 48.2657 38.5973 48.2352L38.5832 47.7354C37.3832 47.7694 36.6977 48.1861 36.315 48.6301C36.1269 48.8483 36.0189 49.0654 35.9577 49.2298C35.9271 49.312 35.908 49.3815 35.8964 49.4321C35.8906 49.4575 35.8866 49.4782 35.8839 49.4934C35.8826 49.5011 35.8816 49.5074 35.8809 49.5123C35.8806 49.5147 35.8803 49.5168 35.88 49.5185C35.8799 49.5193 35.8798 49.5201 35.8797 49.5208C35.8797 49.5211 35.8797 49.5214 35.8796 49.5217C35.8796 49.5219 35.8796 49.5221 35.8796 49.5221C35.8795 49.5223 35.8795 49.5225 36.1277 49.5528ZM38.5832 48.2352C39.6611 48.2657 40.2063 48.6328 40.485 48.9564C40.6275 49.1219 40.7078 49.2847 40.7522 49.4041C40.7744 49.4638 40.7875 49.5122 40.7948 49.5441C40.7985 49.56 40.8006 49.5716 40.8018 49.5784C40.8024 49.5818 40.8027 49.5839 40.8028 49.5847C40.8029 49.5852 40.8029 49.5852 40.8029 49.585C40.8029 49.5848 40.8028 49.5846 40.8028 49.5843C40.8028 49.5842 40.8027 49.584 40.8027 49.5838C40.8027 49.5837 40.8027 49.5835 40.8027 49.5835C40.8027 49.5833 40.8026 49.5831 41.0508 49.5528C41.299 49.5225 41.2989 49.5224 41.2989 49.5222C41.2989 49.5221 41.2989 49.5219 41.2989 49.5217C41.2988 49.5215 41.2988 49.5212 41.2987 49.5208C41.2987 49.5201 41.2986 49.5194 41.2984 49.5185C41.2982 49.5168 41.2979 49.5147 41.2976 49.5123C41.2968 49.5074 41.2959 49.5011 41.2945 49.4935C41.2919 49.4782 41.2879 49.4575 41.2821 49.4322C41.2705 49.3816 41.2515 49.3121 41.2209 49.2298C41.1597 49.0654 41.0518 48.8484 40.8639 48.6301C40.4815 48.1861 39.7965 47.7694 38.5973 47.7354L38.5832 48.2352ZM40.8165 49.64C41.4237 51.2712 42.1515 52.7443 42.7268 53.8088C43.0146 54.3413 43.2647 54.7724 43.4431 55.0707C43.5323 55.2199 43.6036 55.3359 43.6528 55.4149C43.6774 55.4544 43.6965 55.4846 43.7094 55.5051C43.7159 55.5154 43.7209 55.5232 43.7243 55.5285C43.726 55.5312 43.7273 55.5332 43.7282 55.5346C43.7287 55.5353 43.729 55.5358 43.7293 55.5362C43.7294 55.5364 43.7295 55.5366 43.7296 55.5367C43.7296 55.5367 43.7296 55.5368 43.7296 55.5368C43.7297 55.5369 43.7297 55.5369 43.9398 55.4014C44.15 55.266 44.15 55.266 44.15 55.266C44.15 55.266 44.15 55.266 44.1499 55.266C44.1499 55.2659 44.1499 55.2658 44.1498 55.2657C44.1496 55.2655 44.1493 55.2651 44.149 55.2645C44.1483 55.2633 44.1471 55.2616 44.1456 55.2592C44.1425 55.2544 44.1379 55.2472 44.1318 55.2375C44.1195 55.2181 44.1011 55.189 44.0773 55.1507C44.0296 55.074 43.9598 54.9605 43.8723 54.8141C43.697 54.5211 43.4506 54.0964 43.1667 53.571C42.5984 52.5197 41.8817 51.0685 41.2851 49.4656L40.8165 49.64ZM43.7407 55.5526C45.6374 58.0514 48.2994 59.2468 50.4705 59.8188C51.5574 60.1051 52.5266 60.2366 53.2245 60.2966C53.5737 60.3266 53.8554 60.3388 54.0508 60.3434C54.1485 60.3457 54.2246 60.3462 54.2768 60.346C54.3029 60.3459 54.323 60.3457 54.3368 60.3455C54.3437 60.3454 54.3491 60.3453 54.3528 60.3452C54.3547 60.3452 54.3561 60.3451 54.3572 60.3451C54.3577 60.3451 54.3581 60.3451 54.3585 60.3451C54.3586 60.3451 54.3588 60.3451 54.3589 60.3451C54.359 60.3451 54.3591 60.3451 54.3523 60.0952C54.3455 59.8452 54.3456 59.8452 54.3456 59.8452C54.3456 59.8452 54.3456 59.8452 54.3456 59.8452C54.3455 59.8452 54.3453 59.8452 54.345 59.8453C54.3445 59.8453 54.3435 59.8453 54.3421 59.8453C54.3394 59.8454 54.335 59.8455 54.3291 59.8456C54.3173 59.8457 54.2993 59.8459 54.2753 59.846C54.2274 59.8462 54.1557 59.8458 54.0627 59.8436C53.8766 59.8391 53.6052 59.8275 53.2673 59.7984C52.5913 59.7403 51.6513 59.6128 50.5979 59.3353C48.4881 58.7795 45.9438 57.6281 44.139 55.2503L43.7407 55.5526ZM54.3421 60.3449C57.3796 60.4692 60.1168 59.4908 62.087 58.4893C63.0734 57.9878 63.8714 57.4787 64.4234 57.0944C64.6995 56.9021 64.9144 56.741 65.0607 56.6274C65.134 56.5706 65.1901 56.5256 65.2282 56.4946C65.2473 56.4791 65.2618 56.4671 65.2718 56.4589C65.2768 56.4547 65.2806 56.4515 65.2833 56.4493C65.2846 56.4482 65.2856 56.4473 65.2864 56.4467C65.2867 56.4463 65.287 56.4461 65.2873 56.4459C65.2874 56.4458 65.2875 56.4457 65.2876 56.4457C65.2877 56.4456 65.2877 56.4455 65.126 56.2549C64.9643 56.0642 64.9643 56.0642 64.9644 56.0641C64.9644 56.0642 64.9644 56.0642 64.9643 56.0642C64.9643 56.0642 64.9641 56.0644 64.9639 56.0645C64.9635 56.0649 64.9628 56.0655 64.9618 56.0663C64.9597 56.068 64.9566 56.0707 64.9523 56.0743C64.9436 56.0814 64.9304 56.0923 64.9128 56.1067C64.8775 56.1354 64.8243 56.178 64.7542 56.2324C64.614 56.3411 64.4061 56.4971 64.1377 56.684C63.6007 57.0578 62.8225 57.5545 61.8604 58.0436C59.9334 59.0231 57.2837 59.9649 54.3625 59.8454L54.3421 60.3449ZM65.2847 56.448C69.0747 53.3341 70.8549 49.8609 71.6859 47.1619C72.1012 45.8132 72.2793 44.6586 72.3535 43.8392C72.3906 43.4294 72.4017 43.1032 72.4035 42.8782C72.4044 42.7657 72.403 42.6784 72.4013 42.6186C72.4004 42.5887 72.3995 42.5657 72.3988 42.5498C72.3984 42.5419 72.3981 42.5357 72.3979 42.5313C72.3978 42.5292 72.3977 42.5275 72.3976 42.5262C72.3975 42.5256 72.3975 42.5251 72.3975 42.5247C72.3975 42.5245 72.3975 42.5242 72.3975 42.5241C72.3975 42.524 72.3974 42.5238 72.1479 42.5394C71.8984 42.5549 71.8984 42.5548 71.8984 42.5548C71.8984 42.5548 71.8984 42.5547 71.8984 42.5548C71.8984 42.5548 71.8984 42.555 71.8984 42.5553C71.8985 42.5559 71.8985 42.5569 71.8986 42.5584C71.8988 42.5614 71.899 42.5661 71.8993 42.5727C71.8999 42.5858 71.9007 42.6059 71.9015 42.6329C71.903 42.6868 71.9044 42.768 71.9036 42.8742C71.9019 43.0866 71.8913 43.399 71.8555 43.7941C71.784 44.5843 71.6116 45.7041 71.2081 47.0148C70.4015 49.6343 68.6707 53.0189 64.9673 56.0617L65.2847 56.448Z" fill="#3A4850"/>
<path d="M20.3348 47.627C20.2685 47.5607 20.1607 47.5607 20.0944 47.627L15.5052 52.2163C15.4389 52.2825 15.4389 52.3903 15.5052 52.4566C15.5385 52.4899 15.582 52.5066 15.6252 52.5066C15.6687 52.5066 15.7122 52.4899 15.7455 52.4566L20.3348 47.8673C20.4011 47.801 20.4011 47.6933 20.3348 47.627" stroke="#B0BDC5" stroke-width="0.55"/>
<path d="M26.8934 45.2473L17.8848 54.2559C17.8185 54.3222 17.8185 54.43 17.8848 54.4963C17.9181 54.5296 17.9616 54.5462 18.0051 54.5462C18.0483 54.5462 18.0918 54.5296 18.1251 54.4963L27.1337 45.4877C27.2 45.4214 27.2 45.3136 27.1337 45.2473C27.0674 45.1811 26.9597 45.1811 26.8934 45.2473" stroke="#B0BDC5" stroke-width="0.55"/>
<path d="M53.3095 47.627C53.2432 47.5607 53.1355 47.5607 53.0692 47.627L48.4799 52.2163C48.4136 52.2825 48.4136 52.3903 48.4799 52.4566C48.5132 52.4899 48.5567 52.5066 48.5999 52.5066C48.6434 52.5066 48.6869 52.4899 48.7202 52.4566L53.3095 47.8673C53.3758 47.801 53.3758 47.6933 53.3095 47.627" stroke="#B0BDC5" stroke-width="0.55"/>
<path d="M59.8681 45.2473L50.8595 54.2559C50.7932 54.3222 50.7932 54.43 50.8595 54.4963C50.8928 54.5296 50.9364 54.5462 50.9799 54.5462C51.023 54.5462 51.0666 54.5296 51.0999 54.4963L60.1084 45.4877C60.1747 45.4214 60.1747 45.3136 60.1084 45.2473C60.0421 45.1811 59.9344 45.1811 59.8681 45.2473" stroke="#B0BDC5" stroke-width="0.55"/>
<defs>
<linearGradient id="paint0_linear_1619_34" x1="7.0878" y1="40.7386" x2="7.0878" y2="58.8749" gradientUnits="userSpaceOnUse">
<stop stop-color="#89959C" stop-opacity="0.628551"/>
<stop offset="1" stop-color="#3A4850"/>
</linearGradient>
<linearGradient id="paint1_linear_1619_34" x1="70.2434" y1="40.7386" x2="70.2434" y2="59.1247" gradientUnits="userSpaceOnUse">
<stop stop-color="#89959C" stop-opacity="0.628551"/>
<stop offset="1" stop-color="#3A4850"/>
</linearGradient>
</defs>
</svg>
