<svg width="93" height="89" viewBox="0 0 93 89" fill="none" xmlns="http://www.w3.org/2000/svg">
<path fill-rule="evenodd" clip-rule="evenodd" d="M57.0058 66.1572C67.299 65.5409 70.6051 63.6189 71.6007 62.7295L69.9834 61.2301C70.7625 61.7651 71.4632 62.1098 71.9699 62.3206C71.9918 62.2871 72 62.2686 72 62.2686C69.8113 60.5933 68.2474 54.0056 68.2474 54.0056C66.997 50.7671 66.0588 39.0436 66.0588 39.0436C66.0588 35.6938 64.8084 32.2322 64.8084 32.2322C62.5148 25.1978 57.4076 21.9596 57.4076 21.9596C56.9883 21.694 56.5635 21.457 56.1378 21.2407C55.7124 21.0435 53.0676 19.8635 49.8184 19.4404C47.8305 19.2363 46.4628 19.3915 46.4628 19.3915C45.3716 19.4847 44.3487 19.6867 43.3927 19.9695C41.9325 20.4948 40.5494 21.3675 39.3749 22.7294C39.3749 22.7294 39.3671 22.7058 39.303 22.7007C35.071 20.9861 31.993 30.1057 31.9862 30.1256C31.08 32.3326 30.2545 36.0566 30.2545 36.0566L29.6288 43.5096C29.1596 49.8743 26.7364 57.8302 26.7364 57.8302C25.7981 60.7615 24 62.1851 24 62.1851C24.4133 62.6093 24.9189 62.9884 25.4914 63.3265C25.8203 63.1572 26.6057 62.7321 27.3508 62.1718L26.0855 63.6505C28.8919 65.0718 32.929 65.6753 35.8515 65.9316C38.0863 66.1572 39.2065 66.1183 39.4745 66.1206L57.0058 66.1572Z" fill="#89959C"/>
<path fill-rule="evenodd" clip-rule="evenodd" d="M60.5948 33.485C58.8287 31.2015 55.1455 29.5 51.6651 29.5H44.2459C40.766 29.5 37.0819 31.2015 35.3163 33.485C33.3642 36.0099 32.7812 39.2982 32.7229 41.3357C32.6348 44.4087 33.0475 47.9979 33.7595 53.0629C34.2071 56.2501 35.6794 60.7888 36.6761 62.3065C37.6535 64.2521 43.4774 70.5633 47.9557 70.6C52.4341 70.5633 58.2571 64.2521 59.235 62.3065C60.2321 60.7888 61.7035 56.2501 62.152 53.0629C62.8636 47.9979 63.2767 44.4087 63.1881 41.3357C63.1294 39.2982 62.5473 36.0099 60.5948 33.485Z" fill="#FFF1E3"/>
<path d="M60.5948 33.485C58.8287 31.2015 55.1454 29.5 51.6651 29.5H44.2459C40.766 29.5 37.0819 31.2015 35.3163 33.485C33.3642 36.0099 32.7812 39.2982 32.7229 41.3357C32.6348 44.4087 33.0475 47.9979 33.7595 53.0629C34.2071 56.2501 35.6794 60.7888 36.6761 62.3065C37.6535 64.2521 43.4774 70.5633 47.9557 70.6C52.4341 70.5633 58.2571 64.2521 59.235 62.3065C60.2321 60.7888 61.7035 56.2501 62.152 53.0629C62.8636 47.9979 63.2767 44.4087 63.1881 41.3357C63.1294 39.2982 62.5473 36.0099 60.5948 33.485" stroke="#89959C" stroke-width="2.28"/>
</svg>
