<svg width="77" height="77" viewBox="0 0 77 77" fill="none" xmlns="http://www.w3.org/2000/svg">
<path fill-rule="evenodd" clip-rule="evenodd" d="M68.2457 43.2012C68.2457 50.9776 62.151 56.5712 54.4728 56.5712C46.7945 56.5712 43.3379 51.725 43.1875 46.6351C43.0972 42.6424 49.2665 40.6003 55.8821 39.2288C63.1699 38.3754 68.3761 38.223 68.2457 43.2012ZM33.9893 46.6351C33.8388 51.725 30.3795 56.5712 22.6951 56.5712C15.0108 56.5712 8.91116 50.9776 8.91116 43.2012C8.78067 38.223 13.991 38.3754 21.2846 39.2288C27.9055 40.6003 34.0797 42.6424 33.9893 46.6351ZM72.1479 40.5394C72.3285 36.2317 62.7486 37.0648 62.7486 37.0648C53.4796 36.9124 42.7361 41.8398 42.7361 41.8398C41.2236 42.6647 38.7538 42.7302 38.5903 42.7337C38.4265 42.7302 35.9548 42.6647 34.4411 41.8398C34.4411 41.8398 23.689 36.9124 14.4127 37.0648C14.4127 37.0648 4.8252 36.2317 5.0059 40.5394C5.0059 40.5394 4.53404 48.0981 12.0334 54.2549C12.0334 54.2549 16.8522 58.3389 22.8156 58.0952C22.8156 58.0952 29.5319 58.278 33.2364 53.4014C33.2364 53.4014 34.923 50.7869 36.1277 47.5528C36.1277 47.5528 36.3114 46.0498 38.5903 45.9853C40.8673 46.0498 41.0508 47.5528 41.0508 47.5528C42.2546 50.7869 43.9398 53.4014 43.9398 53.4014C47.6414 58.278 54.3523 58.0952 54.3523 58.0952C60.311 58.3389 65.126 54.2549 65.126 54.2549C72.6194 48.0981 72.1479 40.5394 72.1479 40.5394Z" fill="#3A4850"/>
<path d="M43.1875 46.6351L42.9375 46.6408L42.9376 46.6425L43.1875 46.6351ZM55.8821 39.2288L55.8531 38.9805L55.8421 38.9818L55.8314 38.984L55.8821 39.2288ZM8.91116 43.2012H9.16124L9.16107 43.1946L8.91116 43.2012ZM21.2846 39.2288L21.3353 38.984L21.3246 38.9818L21.3137 38.9805L21.2846 39.2288ZM62.7486 37.0648L62.7445 37.3148L62.7574 37.315L62.7702 37.3139L62.7486 37.0648ZM42.7361 41.8398L42.6319 41.6126L42.624 41.6162L42.6164 41.6203L42.7361 41.8398ZM38.5903 42.7337L38.5849 42.9838L38.5956 42.9836L38.5903 42.7337ZM34.4411 41.8398L34.5607 41.6203L34.5531 41.6162L34.5453 41.6126L34.4411 41.8398ZM14.4127 37.0648L14.3911 37.3139L14.4039 37.315L14.4168 37.3148L14.4127 37.0648ZM5.0059 40.5394L5.25541 40.5549L5.25622 40.5419L5.25568 40.5289L5.0059 40.5394ZM12.0334 54.2549L12.195 54.0641L12.192 54.0616L12.0334 54.2549ZM22.8156 58.0952L22.8224 57.8452L22.8139 57.845L22.8054 57.8454L22.8156 58.0952ZM33.2364 53.4014L33.4354 53.5527L33.4412 53.545L33.4464 53.537L33.2364 53.4014ZM36.1277 47.5528L36.362 47.6401L36.3723 47.6125L36.3758 47.5832L36.1277 47.5528ZM38.5903 45.9853L38.5973 45.7354L38.5903 45.7352L38.5832 45.7354L38.5903 45.9853ZM41.0508 47.5528L40.8026 47.5831L40.8062 47.6124L40.8165 47.64L41.0508 47.5528ZM43.9398 53.4014L43.7297 53.5369L43.7349 53.545L43.7407 53.5526L43.9398 53.4014ZM54.3523 58.0952L54.3625 57.8454L54.354 57.845L54.3455 57.8452L54.3523 58.0952ZM65.126 54.2549L64.9673 54.0617L64.9643 54.0642L65.126 54.2549ZM67.9957 43.2012C67.9957 50.8287 62.024 56.3212 54.4728 56.3212V56.8212C62.2779 56.8212 68.4957 51.1265 68.4957 43.2012H67.9957ZM54.4728 56.3212C50.6886 56.3212 47.9725 55.1286 46.1842 53.3354C44.3933 51.5396 43.511 49.1196 43.4374 46.6277L42.9376 46.6425C43.0144 49.2405 43.9356 51.7886 45.8302 53.6884C47.7273 55.5908 50.5786 56.8212 54.4728 56.8212V56.3212ZM43.4374 46.6295C43.3958 44.7877 44.7925 43.3444 47.132 42.1726C49.4592 41.007 52.6284 40.1587 55.9329 39.4736L55.8314 38.984C52.5202 39.6705 49.2969 40.529 46.9081 41.7255C44.5317 42.9158 42.8889 44.4898 42.9375 46.6408L43.4374 46.6295ZM55.9112 39.4771C59.564 39.0494 62.6445 38.8054 64.7926 39.2725C65.8607 39.5047 66.6694 39.9071 67.205 40.5242C67.7373 41.1375 68.0273 41.9947 67.9958 43.1946L68.4957 43.2077C68.5294 41.9186 68.2175 40.928 67.5826 40.1965C66.9509 39.4687 66.027 39.0291 64.8989 38.7839C62.6546 38.2959 59.488 38.5549 55.8531 38.9805L55.9112 39.4771ZM33.7394 46.6277C33.6657 49.1196 32.7827 51.5395 30.9905 53.3353C29.2007 55.1286 26.4824 56.3212 22.6951 56.3212V56.8212C26.5923 56.8212 29.4458 55.5908 31.3444 53.6885C33.2404 51.7887 34.1624 49.2406 34.2392 46.6425L33.7394 46.6277ZM22.6951 56.3212C15.1376 56.3212 9.16116 50.8285 9.16116 43.2012H8.66116C8.66116 51.1267 14.884 56.8212 22.6951 56.8212V56.3212ZM9.16107 43.1946C9.12962 41.9947 9.41982 41.1376 9.95254 40.5243C10.4886 39.9072 11.2979 39.5047 12.3669 39.2725C14.5169 38.8054 17.5999 39.0494 21.2556 39.4771L21.3137 38.9805C17.6758 38.5548 14.5068 38.2959 12.2608 38.7839C11.1318 39.0291 10.2072 39.4686 9.57506 40.1964C8.93962 40.9279 8.62745 41.9186 8.66124 43.2077L9.16107 43.1946ZM21.2339 39.4736C24.541 40.1587 27.7128 41.007 30.0418 42.1726C32.3833 43.3445 33.7811 44.7878 33.7394 46.6295L34.2393 46.6408C34.2879 44.4897 32.6438 42.9157 30.2656 41.7255C27.8749 40.529 24.6491 39.6705 21.3353 38.984L21.2339 39.4736ZM72.3977 40.5498C72.4477 39.3568 71.8117 38.5256 70.8848 37.9652C69.9688 37.4114 68.7485 37.1059 67.5504 36.9391C66.3473 36.7717 65.1419 36.7411 64.2396 36.752C63.7878 36.7574 63.4107 36.7733 63.1462 36.7878C63.0138 36.7951 62.9096 36.802 62.8382 36.8071C62.8024 36.8097 62.7749 36.8118 62.7562 36.8133C62.7468 36.8141 62.7396 36.8147 62.7347 36.8151C62.7323 36.8153 62.7304 36.8154 62.7291 36.8156C62.7284 36.8156 62.7279 36.8157 62.7276 36.8157C62.7274 36.8157 62.7272 36.8157 62.7271 36.8157C62.727 36.8157 62.7269 36.8157 62.7486 37.0648C62.7702 37.3139 62.7702 37.3139 62.7702 37.3139C62.7703 37.3139 62.7703 37.3139 62.7705 37.3138C62.7707 37.3138 62.771 37.3138 62.7715 37.3138C62.7726 37.3137 62.7741 37.3135 62.7763 37.3134C62.7806 37.313 62.7872 37.3125 62.7959 37.3118C62.8134 37.3104 62.8397 37.3083 62.8741 37.3059C62.9429 37.3009 63.0443 37.2941 63.1736 37.287C63.4322 37.2728 63.8021 37.2573 64.2456 37.2519C65.1339 37.2412 66.3122 37.2716 67.4815 37.4343C68.6558 37.5978 69.7966 37.8916 70.6261 38.3931C71.4447 38.888 71.9384 39.5681 71.8981 40.5289L72.3977 40.5498ZM62.7527 36.8148C58.0785 36.738 53.0454 37.9409 49.1913 39.1568C47.262 39.7654 45.6235 40.3787 44.467 40.8401C43.8887 41.0708 43.4307 41.2636 43.1169 41.3988C42.96 41.4665 42.8391 41.5197 42.7573 41.5562C42.7164 41.5744 42.6853 41.5884 42.6642 41.5979C42.6537 41.6027 42.6457 41.6063 42.6403 41.6087C42.6376 41.61 42.6356 41.6109 42.6342 41.6116C42.6335 41.6119 42.6329 41.6121 42.6325 41.6123C42.6323 41.6124 42.6322 41.6125 42.6321 41.6125C42.632 41.6126 42.6319 41.6126 42.7361 41.8398C42.8403 42.0671 42.8403 42.0671 42.8404 42.067C42.8405 42.067 42.8405 42.067 42.8407 42.0669C42.841 42.0668 42.8414 42.0666 42.842 42.0663C42.8432 42.0658 42.8451 42.0649 42.8475 42.0638C42.8525 42.0615 42.8601 42.0581 42.8702 42.0535C42.8904 42.0444 42.9207 42.0307 42.9607 42.0129C43.0408 41.9772 43.1598 41.9248 43.3148 41.858C43.6248 41.7244 44.0785 41.5334 44.6522 41.3045C45.7998 40.8467 47.4265 40.2378 49.3417 39.6336C53.1766 38.4238 58.1497 37.2392 62.7445 37.3148L62.7527 36.8148ZM42.6164 41.6203C41.9 42.011 40.9401 42.2286 40.1214 42.3473C39.3084 42.4653 38.6611 42.4821 38.5849 42.4837L38.5956 42.9836C38.683 42.9818 39.3524 42.9641 40.1932 42.8422C41.0284 42.7211 42.0597 42.4935 42.8558 42.0593L42.6164 41.6203ZM38.5956 42.4837C38.5193 42.4821 37.8715 42.4653 37.0578 42.3473C36.2384 42.2286 35.2778 42.011 34.5607 41.6203L34.3215 42.0594C35.1182 42.4935 36.1502 42.7211 36.9861 42.8422C37.8275 42.9641 38.4975 42.9818 38.5849 42.9836L38.5956 42.4837ZM34.4411 41.8398C34.5453 41.6126 34.5452 41.6125 34.5451 41.6125C34.545 41.6124 34.5448 41.6123 34.5446 41.6123C34.5442 41.6121 34.5437 41.6118 34.543 41.6115C34.5416 41.6109 34.5395 41.6099 34.5368 41.6087C34.5314 41.6062 34.5234 41.6026 34.5129 41.5979C34.4919 41.5884 34.4607 41.5743 34.4197 41.5561C34.3378 41.5197 34.2169 41.4664 34.0599 41.3988C33.7459 41.2635 33.2875 41.0708 32.7087 40.8401C31.5513 40.3787 29.9115 39.7654 27.9807 39.1567C24.1235 37.9409 19.0864 36.738 14.4086 36.8148L14.4168 37.3148C19.0153 37.2392 23.9924 38.4238 27.8304 39.6336C29.7471 40.2378 31.3751 40.8468 32.5236 41.3045C33.0978 41.5334 33.5519 41.7244 33.8621 41.858C34.0172 41.9248 34.1363 41.9773 34.2165 42.0129C34.2565 42.0308 34.2868 42.0444 34.3071 42.0535C34.3172 42.0581 34.3247 42.0615 34.3297 42.0638C34.3322 42.0649 34.3341 42.0658 34.3353 42.0663C34.3359 42.0666 34.3363 42.0668 34.3366 42.0669C34.3368 42.067 34.3368 42.067 34.3369 42.0671C34.337 42.0671 34.337 42.0671 34.4411 41.8398ZM14.4127 37.0648C14.4343 36.8157 14.4342 36.8157 14.4341 36.8157C14.434 36.8157 14.4339 36.8157 14.4337 36.8157C14.4333 36.8157 14.4328 36.8156 14.4322 36.8156C14.4308 36.8154 14.429 36.8153 14.4265 36.8151C14.4216 36.8147 14.4144 36.8141 14.4051 36.8133C14.3863 36.8118 14.3588 36.8097 14.323 36.8071C14.2515 36.802 14.1472 36.7951 14.0148 36.7878C13.75 36.7733 13.3726 36.7574 12.9205 36.752C12.0174 36.7411 10.8111 36.7717 9.6071 36.9391C8.40809 37.1058 7.18684 37.4114 6.2702 37.9652C5.34268 38.5255 4.70607 39.3567 4.75611 40.5498L5.25568 40.5289C5.21538 39.5682 5.70944 38.8881 6.52875 38.3932C7.35895 37.8916 8.50069 37.5978 9.67597 37.4343C10.8463 37.2716 12.0255 37.2412 12.9145 37.2519C13.3584 37.2573 13.7286 37.2728 13.9874 37.287C14.1168 37.2941 14.2183 37.3009 14.2871 37.3059C14.3216 37.3083 14.3478 37.3104 14.3653 37.3118C14.3741 37.3125 14.3807 37.313 14.385 37.3134C14.3871 37.3135 14.3887 37.3137 14.3897 37.3138C14.3903 37.3138 14.3906 37.3138 14.3908 37.3138C14.3909 37.3139 14.391 37.3139 14.3911 37.3139C14.3911 37.3139 14.3911 37.3139 14.4127 37.0648ZM5.0059 40.5394C4.75638 40.5238 4.75637 40.5239 4.75636 40.5241C4.75635 40.5242 4.75634 40.5244 4.75633 40.5246C4.7563 40.525 4.75627 40.5256 4.75624 40.5262C4.75616 40.5274 4.75607 40.5292 4.75595 40.5313C4.75571 40.5357 4.7554 40.5418 4.75503 40.5498C4.7543 40.5657 4.75338 40.5887 4.75253 40.6186C4.75082 40.6784 4.74938 40.7657 4.75028 40.8782C4.75207 41.1032 4.76323 41.4294 4.80036 41.8392C4.87463 42.6586 5.05288 43.8133 5.46847 45.1619C6.30018 47.861 8.0818 51.3342 11.8747 54.4481L12.192 54.0616C8.48561 51.0188 6.75349 47.6342 5.9463 45.0147C5.54244 43.7041 5.36994 42.5843 5.29832 41.7941C5.26252 41.399 5.25195 41.0866 5.25026 40.8742C5.24941 40.768 5.25078 40.6868 5.25232 40.6329C5.2531 40.6059 5.25391 40.5858 5.25451 40.5727C5.25481 40.5661 5.25505 40.5614 5.25522 40.5584C5.2553 40.5569 5.25535 40.5559 5.25539 40.5553C5.25541 40.555 5.25542 40.5548 5.25542 40.5548C5.25542 40.5547 5.25542 40.5548 5.25542 40.5548C5.25542 40.5548 5.25541 40.5549 5.0059 40.5394ZM12.0334 54.2549C11.8717 54.4456 11.8718 54.4456 11.8719 54.4457C11.872 54.4458 11.8721 54.4459 11.8722 54.446C11.8724 54.4461 11.8727 54.4464 11.8731 54.4467C11.8738 54.4473 11.8749 54.4482 11.8762 54.4493C11.8789 54.4516 11.8827 54.4548 11.8877 54.4589C11.8977 54.4672 11.9122 54.4792 11.9313 54.4947C11.9695 54.5257 12.0256 54.5706 12.0989 54.6274C12.2454 54.741 12.4604 54.9022 12.7367 55.0944C13.2892 55.4787 14.0878 55.9879 15.075 56.4893C17.0467 57.4908 19.786 58.4692 22.8258 58.3449L22.8054 57.8454C19.8818 57.9649 17.23 57.0231 15.3014 56.0435C14.3385 55.5544 13.5597 55.0578 13.0223 54.6839C12.7536 54.4971 12.5456 54.3411 12.4053 54.2323C12.3351 54.1779 12.2819 54.1353 12.2466 54.1066C12.2289 54.0923 12.2157 54.0814 12.2071 54.0742C12.2028 54.0706 12.1996 54.068 12.1976 54.0663C12.1966 54.0654 12.1958 54.0648 12.1954 54.0645C12.1952 54.0643 12.1951 54.0642 12.195 54.0641C12.195 54.0641 12.195 54.0641 12.195 54.0641C12.195 54.0641 12.195 54.0641 12.0334 54.2549ZM22.8156 58.0952C22.8088 58.3451 22.8089 58.3451 22.8091 58.3451C22.8092 58.3451 22.8093 58.3451 22.8095 58.3451C22.8098 58.3451 22.8102 58.3451 22.8108 58.3451C22.8118 58.3451 22.8133 58.3452 22.8152 58.3452C22.8189 58.3453 22.8242 58.3454 22.8312 58.3455C22.845 58.3457 22.8651 58.3459 22.8912 58.346C22.9434 58.3462 23.0196 58.3457 23.1174 58.3434C23.3129 58.3388 23.5949 58.3266 23.9443 58.2966C24.6428 58.2366 25.6126 58.1051 26.7004 57.8188C28.8732 57.2469 31.5372 56.0514 33.4354 53.5527L33.0373 53.2502C31.231 55.628 28.6847 56.7794 26.5732 57.3352C25.5188 57.6128 24.5781 57.7403 23.9015 57.7984C23.5634 57.8275 23.2918 57.8391 23.1055 57.8436C23.0124 57.8458 22.9407 57.8462 22.8927 57.846C22.8687 57.8459 22.8506 57.8457 22.8388 57.8456C22.8329 57.8455 22.8286 57.8454 22.8258 57.8453C22.8245 57.8453 22.8235 57.8453 22.8229 57.8453C22.8226 57.8452 22.8224 57.8452 22.8224 57.8452C22.8223 57.8452 22.8223 57.8452 22.8223 57.8452C22.8224 57.8452 22.8224 57.8452 22.8156 58.0952ZM33.2364 53.4014C33.4464 53.537 33.4465 53.5369 33.4465 53.5369C33.4465 53.5369 33.4465 53.5368 33.4466 53.5367C33.4467 53.5366 33.4468 53.5365 33.4469 53.5363C33.4471 53.5359 33.4475 53.5354 33.4479 53.5347C33.4488 53.5333 33.4501 53.5312 33.4518 53.5286C33.4552 53.5233 33.4602 53.5154 33.4667 53.5052C33.4797 53.4847 33.4988 53.4545 33.5234 53.415C33.5726 53.336 33.644 53.2199 33.7332 53.0708C33.9118 52.7725 34.1621 52.3414 34.4501 51.8089C35.0259 50.7444 35.7543 49.2713 36.362 47.6401L35.8934 47.4656C35.2963 49.0684 34.5791 50.5196 34.0104 51.571C33.7262 52.0963 33.4795 52.521 33.3042 52.814C33.2165 52.9605 33.1467 53.074 33.099 53.1506C33.0751 53.1889 33.0568 53.218 33.0445 53.2374C33.0383 53.2471 33.0337 53.2543 33.0306 53.2591C33.0291 53.2615 33.028 53.2633 33.0273 53.2644C33.0269 53.265 33.0266 53.2654 33.0265 53.2656C33.0264 53.2658 33.0263 53.2659 33.0263 53.2659C33.0263 53.2659 33.0263 53.2659 33.0263 53.2659C33.0263 53.2659 33.0263 53.2659 33.2364 53.4014ZM36.1277 47.5528C36.3758 47.5832 36.3758 47.5833 36.3758 47.5835C36.3758 47.5836 36.3758 47.5837 36.3758 47.5838C36.3757 47.584 36.3757 47.5842 36.3757 47.5844C36.3756 47.5847 36.3756 47.5849 36.3756 47.585C36.3756 47.5853 36.3756 47.5852 36.3756 47.5848C36.3758 47.584 36.3761 47.5818 36.3767 47.5784C36.3778 47.5717 36.38 47.56 36.3837 47.5441C36.391 47.5123 36.4041 47.4639 36.4263 47.4042C36.4707 47.2848 36.5511 47.122 36.6938 46.9565C36.9727 46.6328 37.5184 46.2657 38.5973 46.2352L38.5832 45.7354C37.3832 45.7694 36.6977 46.1861 36.315 46.6301C36.1269 46.8483 36.0189 47.0654 35.9577 47.2298C35.9271 47.312 35.908 47.3815 35.8964 47.4321C35.8906 47.4575 35.8866 47.4782 35.8839 47.4934C35.8826 47.5011 35.8816 47.5074 35.8809 47.5123C35.8806 47.5147 35.8803 47.5168 35.88 47.5185C35.8799 47.5193 35.8798 47.5201 35.8797 47.5208C35.8797 47.5211 35.8797 47.5214 35.8796 47.5217C35.8796 47.5219 35.8796 47.5221 35.8796 47.5221C35.8795 47.5223 35.8795 47.5225 36.1277 47.5528ZM38.5832 46.2352C39.6611 46.2657 40.2063 46.6328 40.485 46.9564C40.6275 47.1219 40.7078 47.2847 40.7522 47.4041C40.7744 47.4638 40.7875 47.5122 40.7948 47.5441C40.7985 47.56 40.8006 47.5716 40.8018 47.5784C40.8024 47.5818 40.8027 47.5839 40.8028 47.5847C40.8029 47.5852 40.8029 47.5852 40.8029 47.585C40.8029 47.5848 40.8028 47.5846 40.8028 47.5843C40.8028 47.5842 40.8027 47.584 40.8027 47.5838C40.8027 47.5837 40.8027 47.5835 40.8027 47.5835C40.8027 47.5833 40.8026 47.5831 41.0508 47.5528C41.299 47.5225 41.2989 47.5224 41.2989 47.5222C41.2989 47.5221 41.2989 47.5219 41.2989 47.5217C41.2988 47.5215 41.2988 47.5212 41.2987 47.5208C41.2987 47.5201 41.2986 47.5194 41.2984 47.5185C41.2982 47.5168 41.2979 47.5147 41.2976 47.5123C41.2968 47.5074 41.2959 47.5011 41.2945 47.4935C41.2919 47.4782 41.2879 47.4575 41.2821 47.4322C41.2705 47.3816 41.2515 47.3121 41.2209 47.2298C41.1597 47.0654 41.0518 46.8484 40.8639 46.6301C40.4815 46.1861 39.7965 45.7694 38.5973 45.7354L38.5832 46.2352ZM40.8165 47.64C41.4237 49.2712 42.1515 50.7443 42.7268 51.8088C43.0146 52.3413 43.2647 52.7724 43.4431 53.0707C43.5323 53.2199 43.6036 53.3359 43.6528 53.4149C43.6774 53.4544 43.6965 53.4846 43.7094 53.5051C43.7159 53.5154 43.7209 53.5232 43.7243 53.5285C43.726 53.5312 43.7273 53.5332 43.7282 53.5346C43.7287 53.5353 43.729 53.5358 43.7293 53.5362C43.7294 53.5364 43.7295 53.5366 43.7296 53.5367C43.7296 53.5367 43.7296 53.5368 43.7296 53.5368C43.7297 53.5369 43.7297 53.5369 43.9398 53.4014C44.15 53.266 44.15 53.266 44.15 53.266C44.15 53.266 44.15 53.266 44.1499 53.266C44.1499 53.2659 44.1499 53.2658 44.1498 53.2657C44.1496 53.2655 44.1493 53.2651 44.149 53.2645C44.1483 53.2633 44.1471 53.2616 44.1456 53.2592C44.1425 53.2544 44.1379 53.2472 44.1318 53.2375C44.1195 53.2181 44.1011 53.189 44.0773 53.1507C44.0296 53.074 43.9598 52.9605 43.8723 52.8141C43.697 52.5211 43.4506 52.0964 43.1667 51.571C42.5984 50.5197 41.8817 49.0685 41.2851 47.4656L40.8165 47.64ZM43.7407 53.5526C45.6374 56.0514 48.2994 57.2468 50.4705 57.8188C51.5574 58.1051 52.5266 58.2366 53.2245 58.2966C53.5737 58.3266 53.8554 58.3388 54.0508 58.3434C54.1485 58.3457 54.2246 58.3462 54.2768 58.346C54.3029 58.3459 54.323 58.3457 54.3368 58.3455C54.3437 58.3454 54.3491 58.3453 54.3528 58.3452C54.3547 58.3452 54.3561 58.3451 54.3572 58.3451C54.3577 58.3451 54.3581 58.3451 54.3585 58.3451C54.3586 58.3451 54.3588 58.3451 54.3589 58.3451C54.359 58.3451 54.3591 58.3451 54.3523 58.0952C54.3455 57.8452 54.3456 57.8452 54.3456 57.8452C54.3456 57.8452 54.3456 57.8452 54.3456 57.8452C54.3455 57.8452 54.3453 57.8452 54.345 57.8453C54.3445 57.8453 54.3435 57.8453 54.3421 57.8453C54.3394 57.8454 54.335 57.8455 54.3291 57.8456C54.3173 57.8457 54.2993 57.8459 54.2753 57.846C54.2274 57.8462 54.1557 57.8458 54.0627 57.8436C53.8766 57.8391 53.6052 57.8275 53.2673 57.7984C52.5913 57.7403 51.6513 57.6128 50.5979 57.3353C48.4881 56.7795 45.9438 55.6281 44.139 53.2503L43.7407 53.5526ZM54.3421 58.3449C57.3796 58.4692 60.1168 57.4908 62.087 56.4893C63.0734 55.9878 63.8714 55.4787 64.4234 55.0944C64.6995 54.9021 64.9144 54.741 65.0607 54.6274C65.134 54.5706 65.1901 54.5256 65.2282 54.4946C65.2473 54.4791 65.2618 54.4671 65.2718 54.4589C65.2768 54.4547 65.2806 54.4515 65.2833 54.4493C65.2846 54.4482 65.2856 54.4473 65.2864 54.4467C65.2867 54.4463 65.287 54.4461 65.2873 54.4459C65.2874 54.4458 65.2875 54.4457 65.2876 54.4457C65.2877 54.4456 65.2877 54.4455 65.126 54.2549C64.9643 54.0642 64.9643 54.0642 64.9644 54.0641C64.9644 54.0642 64.9644 54.0642 64.9643 54.0642C64.9643 54.0642 64.9641 54.0644 64.9639 54.0645C64.9635 54.0649 64.9628 54.0655 64.9618 54.0663C64.9597 54.068 64.9566 54.0707 64.9523 54.0743C64.9436 54.0814 64.9304 54.0923 64.9128 54.1067C64.8775 54.1354 64.8243 54.178 64.7542 54.2324C64.614 54.3411 64.4061 54.4971 64.1377 54.684C63.6007 55.0578 62.8225 55.5545 61.8604 56.0436C59.9334 57.0231 57.2837 57.9649 54.3625 57.8454L54.3421 58.3449ZM65.2847 54.448C69.0747 51.3341 70.8549 47.8609 71.6859 45.1619C72.1012 43.8132 72.2793 42.6586 72.3535 41.8392C72.3906 41.4294 72.4017 41.1032 72.4035 40.8782C72.4044 40.7657 72.403 40.6784 72.4013 40.6186C72.4004 40.5887 72.3995 40.5657 72.3988 40.5498C72.3984 40.5419 72.3981 40.5357 72.3979 40.5313C72.3978 40.5292 72.3977 40.5275 72.3976 40.5262C72.3975 40.5256 72.3975 40.5251 72.3975 40.5247C72.3975 40.5245 72.3975 40.5242 72.3975 40.5241C72.3975 40.524 72.3974 40.5238 72.1479 40.5394C71.8984 40.5549 71.8984 40.5548 71.8984 40.5548C71.8984 40.5548 71.8984 40.5547 71.8984 40.5548C71.8984 40.5548 71.8984 40.555 71.8984 40.5553C71.8985 40.5559 71.8985 40.5569 71.8986 40.5584C71.8988 40.5614 71.899 40.5661 71.8993 40.5727C71.8999 40.5858 71.9007 40.6059 71.9015 40.6329C71.903 40.6868 71.9044 40.768 71.9036 40.8742C71.9019 41.0866 71.8913 41.399 71.8555 41.7941C71.784 42.5843 71.6116 43.7041 71.2081 45.0148C70.4015 47.6343 68.6707 51.0189 64.9673 54.0617L65.2847 54.448Z" fill="#3A4850"/>
<path d="M20.3348 45.627C20.2685 45.5607 20.1607 45.5607 20.0944 45.627L15.5052 50.2163C15.4389 50.2825 15.4389 50.3903 15.5052 50.4566C15.5385 50.4899 15.582 50.5066 15.6252 50.5066C15.6687 50.5066 15.7122 50.4899 15.7455 50.4566L20.3348 45.8673C20.4011 45.801 20.4011 45.6933 20.3348 45.627" stroke="#B0BDC5" stroke-width="0.55"/>
<path d="M26.8934 43.2473L17.8848 52.2559C17.8185 52.3222 17.8185 52.43 17.8848 52.4963C17.9181 52.5296 17.9616 52.5462 18.0051 52.5462C18.0483 52.5462 18.0918 52.5296 18.1251 52.4963L27.1337 43.4877C27.2 43.4214 27.2 43.3136 27.1337 43.2473C27.0674 43.1811 26.9597 43.1811 26.8934 43.2473" stroke="#B0BDC5" stroke-width="0.55"/>
<path d="M53.3095 45.627C53.2432 45.5607 53.1355 45.5607 53.0692 45.627L48.4799 50.2163C48.4136 50.2825 48.4136 50.3903 48.4799 50.4566C48.5132 50.4899 48.5567 50.5066 48.5999 50.5066C48.6434 50.5066 48.6869 50.4899 48.7202 50.4566L53.3095 45.8673C53.3758 45.801 53.3758 45.6933 53.3095 45.627" stroke="#B0BDC5" stroke-width="0.55"/>
<path d="M59.8681 43.2473L50.8595 52.2559C50.7932 52.3222 50.7932 52.43 50.8595 52.4963C50.8928 52.5296 50.9364 52.5462 50.9799 52.5462C51.023 52.5462 51.0666 52.5296 51.0999 52.4963L60.1084 43.4877C60.1747 43.4214 60.1747 43.3136 60.1084 43.2473C60.0421 43.1811 59.9344 43.1811 59.8681 43.2473" stroke="#B0BDC5" stroke-width="0.55"/>
</svg>
