<svg width="93" height="89" viewBox="0 0 93 89" fill="none" xmlns="http://www.w3.org/2000/svg">
<path fill-rule="evenodd" clip-rule="evenodd" d="M57.381 66.0769C68.1032 65.4441 71.547 63.4706 72.5841 62.5574L70.8994 61.0177C71.711 61.5671 72.4409 61.921 72.9687 62.1375C72.9915 62.1031 73 62.0841 73 62.0841C70.7201 60.3639 69.0911 53.5996 69.0911 53.5996C67.7886 50.2744 66.8112 38.2367 66.8112 38.2367C66.8112 34.7971 65.5087 31.2428 65.5087 31.2428C63.1196 24.0199 57.7995 20.695 57.7995 20.695C57.3628 20.4222 56.9203 20.1788 56.4768 19.9568C56.0337 19.7543 53.2788 18.5426 49.8941 18.1082C47.8234 17.8987 46.3988 18.058 46.3988 18.058C45.2621 18.1537 44.1965 18.3611 43.2007 18.6514C41.6797 19.1909 40.239 20.0869 39.0156 21.4853C39.0156 21.4853 39.0074 21.4611 38.9406 21.4559C34.5323 19.6954 31.326 29.0593 31.319 29.0797C30.375 31.3458 29.5151 35.1697 29.5151 35.1697L28.8634 42.8224C28.3745 49.3576 25.8504 57.5268 25.8504 57.5268C24.873 60.5366 23 61.9983 23 61.9983C23.4305 62.4339 23.9572 62.8232 24.5535 63.1704C24.8962 62.9965 25.7142 62.56 26.4904 61.9846L25.1724 63.503C28.0957 64.9624 32.301 65.5821 35.3454 65.8453C37.6733 66.0769 38.8401 66.0369 39.1193 66.0393L57.381 66.0769Z" fill="#89959C"/>
<path fill-rule="evenodd" clip-rule="evenodd" d="M51.8934 29H44.1065C40.4541 29 36.5874 30.7067 34.7343 32.9972C32.6855 35.5298 32.0736 38.8282 32.0124 40.872C31.9198 43.9544 32.353 47.5545 33.1003 52.6351C33.5701 55.832 35.7392 60.9975 36.7852 62.5199C37.8111 64.4715 43.2999 68.9632 48.0002 69C52.7005 68.9632 58.1883 64.4715 59.2147 62.5199C60.2612 60.9975 62.4293 55.832 62.9 52.6351C63.6469 47.5545 64.0805 43.9544 63.9875 40.872C63.9259 38.8282 63.3149 35.5298 61.2656 32.9972C59.412 30.7067 55.5462 29 51.8934 29Z" fill="#FFF1E3" stroke="#89959C" stroke-width="2"/>
</svg>
