<svg width="93" height="89" viewBox="0 0 93 89" fill="none" xmlns="http://www.w3.org/2000/svg">
<path fill-rule="evenodd" clip-rule="evenodd" d="M57.6934 66.1538C68.2011 65.5463 71.576 63.6518 72.5924 62.7751L70.9414 61.297C71.7368 61.8244 72.4521 62.1642 72.9693 62.372C72.9917 62.339 73 62.3208 73 62.3208C70.7657 60.6693 69.1693 54.1756 69.1693 54.1756C67.8928 50.9834 66.935 39.4273 66.935 39.4273C66.935 36.1252 65.6586 32.7131 65.6586 32.7131C63.3172 25.7791 58.1036 22.5872 58.1036 22.5872C57.6756 22.3253 57.2419 22.0917 56.8073 21.8785C56.373 21.6841 53.6732 20.5209 50.3562 20.1038C48.3269 19.9027 46.9308 20.0557 46.9308 20.0557C45.8168 20.1475 44.7726 20.3467 43.7967 20.6254C42.3061 21.1433 40.8942 22.0034 39.6953 23.3459C39.6953 23.3459 39.6872 23.3227 39.6218 23.3176C35.3016 21.6276 32.1595 30.6169 32.1526 30.6365C31.2275 32.812 30.3848 36.4829 30.3848 36.4829L29.7461 43.8295C29.2671 50.1033 26.7934 57.9457 26.7934 57.9457C25.8356 60.8351 24 62.2384 24 62.2384C24.4219 62.6566 24.938 63.0302 25.5224 63.3635C25.8583 63.1966 26.6599 62.7776 27.4206 62.2252L26.1289 63.6829C28.9938 65.0839 33.115 65.6788 36.0984 65.9314C38.3798 66.1538 39.5233 66.1155 39.7969 66.1177L57.6934 66.1538Z" fill="#89959C"/>
<path fill-rule="evenodd" clip-rule="evenodd" d="M32.3094 45.6728C32.2994 49.8046 32.2319 56.1894 35.6338 61.0775C37.8955 64.3271 44.3329 68 48.4328 68C52.6702 68 58.4009 64.5926 60.8638 61.4763C64.1853 57.2735 64.7724 50.6786 64.7691 45.6728C64.7658 40.667 62.2165 30.1539 48.3584 30.1539C34.2318 30.1539 32.3189 41.754 32.3094 45.6728Z" fill="#FFF1E3" stroke="#89959C" stroke-width="2.28"/>
</svg>
