<svg width="83" height="83" viewBox="0 0 83 83" fill="none" xmlns="http://www.w3.org/2000/svg">
<path fill-rule="evenodd" clip-rule="evenodd" d="M60.029 54.9496C59.1765 54.0036 52.3572 51.5204 51.3829 51.0473C50.4088 50.5744 49.0692 49.7467 49.0692 49.7467L48.6444 49.163L47.6079 49.0372C46.8212 49.1112 46.7362 46.9748 46.7808 45.387C52.6381 45.04 54.5194 43.9577 55.086 43.4569L54.1656 42.6128C54.609 42.9139 55.0077 43.108 55.296 43.2267C55.3085 43.2078 55.3132 43.1974 55.3132 43.1974C54.0677 42.2542 53.1778 38.5446 53.1778 38.5446C52.4661 36.7212 51.9324 30.1198 51.9324 30.1198C51.9324 28.2336 51.2207 26.2844 51.2207 26.2844C49.9157 22.3235 47.0095 20.5001 47.0095 20.5001C46.7709 20.3505 46.529 20.2171 46.2869 20.0955C46.0448 19.9844 44.5399 19.3198 42.6909 19.0817C41.5596 18.9667 40.7815 19.0542 40.7815 19.0542C40.1605 19.1065 39.5784 19.2203 39.0344 19.3795C38.2036 19.6753 37.4165 20.1667 36.7482 20.9336C36.7482 20.9336 36.7437 20.9203 36.7071 20.9174C34.2991 19.952 32.5476 25.087 32.5437 25.0982C32.028 26.3411 31.5583 28.4379 31.5583 28.4379L31.2023 32.6347C30.9352 36.2184 29.5562 40.6982 29.5562 40.6982C29.0224 42.3489 27.9992 43.1504 27.9992 43.1504C28.2344 43.3894 28.5221 43.6028 28.8479 43.7931C29.0351 43.6979 29.482 43.4585 29.906 43.1428L29.186 43.9756C30.7828 44.776 33.08 45.1156 34.7431 45.26C34.9141 44.1515 35.2008 41.8966 35.0647 39.942C35.1973 41.2702 35.4413 43.9523 35.4013 45.31C36.1301 45.3572 36.6524 45.3651 36.8048 45.3664C36.8508 46.9563 36.7685 49.1115 35.9784 49.0372L34.942 49.163L34.517 49.7467C34.517 49.7467 33.1775 50.5744 32.2032 51.0473C31.2292 51.5204 24.4096 54.0036 23.5572 54.9496C22.7048 55.8955 21.1218 57.1528 20.9999 59.8944V62.2H62.5863V59.8944C62.4645 57.1528 60.8815 55.8955 60.029 54.9496" fill="#5B6971"/>
</svg>
